<?xml version="1.0" encoding="UTF-8"?>
<!DOCTYPE svg PUBLIC "-//W3C//DTD SVG 1.1//EN" "http://www.w3.org/Graphics/SVG/1.1/DTD/svg11.dtd">
<svg xmlns="http://www.w3.org/2000/svg" version="1.1" width="141px" height="198px" style="shape-rendering:geometricPrecision; text-rendering:geometricPrecision; image-rendering:optimizeQuality; fill-rule:evenodd; clip-rule:evenodd" xmlns:xlink="http://www.w3.org/1999/xlink">
<g><path style="opacity:1" fill="#7e5a46" d="M 100.5,3.5 C 95.2703,3.60279 91.6036,5.93612 89.5,10.5C 88.1667,10.1667 86.8333,9.83333 85.5,9.5C 89.0445,2.73429 94.0445,0.734291 100.5,3.5 Z"/></g>
<g><path style="opacity:0.8" fill="#4a3129" d="M 72.5,5.5 C 73.8333,5.83333 73.8333,6.16667 72.5,6.5C 70.549,6.22672 69.049,6.89339 68,8.5C 66.9887,7.66337 65.8221,7.33003 64.5,7.5C 66.78,5.77733 69.4467,5.11066 72.5,5.5 Z"/></g>
<g><path style="opacity:1" fill="#603c2b" d="M 100.5,3.5 C 103.44,5.50895 105.773,8.17562 107.5,11.5C 104.832,11.1663 102.832,9.83292 101.5,7.5C 100.893,7.62358 100.56,7.95691 100.5,8.5C 99.325,8.28099 98.325,8.61432 97.5,9.5C 98.2599,11.3604 99.2599,13.027 100.5,14.5C 96.6754,13.5589 93.0087,12.2255 89.5,10.5C 91.6036,5.93612 95.2703,3.60279 100.5,3.5 Z"/></g>
<g><path style="opacity:0.991" fill="#624334" d="M 51.5,2.5 C 52.8775,3.23442 54.3775,3.90109 56,4.5C 55.6692,6.0187 55.8359,7.35204 56.5,8.5C 53.5,9.83333 50.5,11.1667 47.5,12.5C 46.2921,13.2341 44.9587,13.5674 43.5,13.5C 43.9175,12.7784 44.5842,12.2784 45.5,12C 43.26,11.023 40.9267,10.523 38.5,10.5C 38.5,11.8333 38.5,13.1667 38.5,14.5C 39.8333,14.5 41.1667,14.5 42.5,14.5C 39.6558,15.5511 36.6558,15.5511 33.5,14.5C 32.3398,12.7973 33.0065,12.1307 35.5,12.5C 35.5,11.5 35.5,10.5 35.5,9.5C 38.3812,8.36425 41.2145,7.03092 44,5.5C 44.3333,5.83333 44.6667,6.16667 45,6.5C 45.6431,2.31957 47.8098,0.986239 51.5,2.5 Z"/></g>
<g><path style="opacity:1" fill="#866754" d="M 61.5,-0.5 C 62.1667,-0.5 62.8333,-0.5 63.5,-0.5C 63.8333,0.833333 64.1667,0.833333 64.5,-0.5C 64.8333,-0.5 65.1667,-0.5 65.5,-0.5C 68.0912,1.28118 70.4245,3.28118 72.5,5.5C 69.4467,5.11066 66.78,5.77733 64.5,7.5C 61.8333,7.83333 59.1667,8.16667 56.5,8.5C 55.8359,7.35204 55.6692,6.0187 56,4.5C 54.3775,3.90109 52.8775,3.23442 51.5,2.5C 55.2142,2.40975 58.5475,1.40975 61.5,-0.5 Z"/></g>
<g><path style="opacity:1" fill="#865c44" d="M 100.5,3.5 C 106.235,5.57011 109.902,9.57011 111.5,15.5C 112.555,18.0728 112.722,20.7395 112,23.5C 111.283,22.9558 110.783,22.2891 110.5,21.5C 110.68,17.7144 109.68,14.381 107.5,11.5C 105.773,8.17562 103.44,5.50895 100.5,3.5 Z"/></g>
<g><path style="opacity:1" fill="#966a54" d="M 72.5,6.5 C 72.5,7.16667 72.5,7.83333 72.5,8.5C 72.4142,9.4959 72.7476,10.3292 73.5,11C 75.2275,10.4742 76.8941,10.6409 78.5,11.5C 78.5126,14.3613 79.6793,15.3613 82,14.5C 84.6604,15.8343 87.4937,16.6676 90.5,17C 92.4257,17.4224 93.4257,18.5891 93.5,20.5C 93.1667,20.5 92.8333,20.5 92.5,20.5C 92.3893,19.8826 92.056,19.3826 91.5,19C 88.5219,18.304 85.5219,17.804 82.5,17.5C 80.3337,17.4211 78.3337,16.7545 76.5,15.5C 75.5581,15.6082 74.7247,15.9415 74,16.5C 72.4315,13.8721 70.0981,12.2054 67,11.5C 61.443,11.1276 55.6097,11.7943 49.5,13.5C 49.1583,12.6618 48.4916,12.3284 47.5,12.5C 50.5,11.1667 53.5,9.83333 56.5,8.5C 59.1667,8.16667 61.8333,7.83333 64.5,7.5C 65.8221,7.33003 66.9887,7.66337 68,8.5C 69.049,6.89339 70.549,6.22672 72.5,6.5 Z"/></g>
<g><path style="opacity:1" fill="#b6876e" d="M 85.5,9.5 C 86.8333,9.83333 88.1667,10.1667 89.5,10.5C 93.0087,12.2255 96.6754,13.5589 100.5,14.5C 101.403,16.6204 102.737,16.9538 104.5,15.5C 106.139,17.8061 108.139,19.8061 110.5,21.5C 110.783,22.2891 111.283,22.9558 112,23.5C 112.722,20.7395 112.555,18.0728 111.5,15.5C 113.287,17.4741 114.287,19.9741 114.5,23C 114.355,23.772 114.022,24.4387 113.5,25C 115.16,26.4877 116.16,28.321 116.5,30.5C 116.5,31.5 116.5,32.5 116.5,33.5C 114.952,33.1788 114.285,32.1788 114.5,30.5C 111.002,30.5216 109.669,29.0216 110.5,26C 108.77,24.1476 107.604,24.3143 107,26.5C 106.517,25.552 106.351,24.552 106.5,23.5C 101.828,21.4869 97.8284,18.4869 94.5,14.5C 93.8165,14.8627 93.1499,15.1961 92.5,15.5C 88.1231,13.2383 83.4564,11.905 78.5,11.5C 76.8941,10.6409 75.2275,10.4742 73.5,11C 72.7476,10.3292 72.4142,9.4959 72.5,8.5C 76.862,7.78646 81.1953,8.1198 85.5,9.5 Z"/></g>
<g><path style="opacity:1" fill="#966c54" d="M 100.5,8.5 C 100.961,11.3033 102.295,13.6366 104.5,15.5C 102.737,16.9538 101.403,16.6204 100.5,14.5C 99.2599,13.027 98.2599,11.3604 97.5,9.5C 98.325,8.61432 99.325,8.28099 100.5,8.5 Z"/></g>
<g><path style="opacity:1" fill="#341b15" d="M 43.5,13.5 C 43.5,14.1667 43.1667,14.5 42.5,14.5C 41.1667,14.5 39.8333,14.5 38.5,14.5C 38.5,13.1667 38.5,11.8333 38.5,10.5C 40.9267,10.523 43.26,11.023 45.5,12C 44.5842,12.2784 43.9175,12.7784 43.5,13.5 Z"/></g>
<g><path style="opacity:1" fill="#7f5442" d="M 82.5,17.5 C 81.8658,18.9468 80.6991,19.6134 79,19.5C 72.0861,18.1579 65.2528,16.4912 58.5,14.5C 58.0894,15.2624 57.9227,16.2624 58,17.5C 55.4377,15.4926 52.6044,15.1593 49.5,16.5C 50.8333,15.5 50.8333,14.5 49.5,13.5C 55.6097,11.7943 61.443,11.1276 67,11.5C 70.0981,12.2054 72.4315,13.8721 74,16.5C 74.7247,15.9415 75.5581,15.6082 76.5,15.5C 78.3337,16.7545 80.3337,17.4211 82.5,17.5 Z"/></g>
<g><path style="opacity:0.996" fill="#432418" d="M 107.5,11.5 C 109.68,14.381 110.68,17.7144 110.5,21.5C 108.139,19.8061 106.139,17.8061 104.5,15.5C 102.295,13.6366 100.961,11.3033 100.5,8.5C 100.56,7.95691 100.893,7.62358 101.5,7.5C 102.832,9.83292 104.832,11.1663 107.5,11.5 Z"/></g>
<g><path style="opacity:1" fill="#a17b61" d="M 47.5,12.5 C 48.4916,12.3284 49.1583,12.6618 49.5,13.5C 50.8333,14.5 50.8333,15.5 49.5,16.5C 45.2382,17.9521 40.9049,19.4521 36.5,21C 36.8333,21.3333 37.1667,21.6667 37.5,22C 34.1444,22.8719 31.1444,24.3719 28.5,26.5C 28.7675,23.3823 29.7675,20.7156 31.5,18.5C 31.8656,19.6946 32.699,20.3613 34,20.5C 40.1564,16.443 39.8231,15.7763 33,18.5C 32.5357,17.9056 32.369,17.2389 32.5,16.5C 32.8333,15.8333 33.1667,15.1667 33.5,14.5C 36.6558,15.5511 39.6558,15.5511 42.5,14.5C 43.1667,14.5 43.5,14.1667 43.5,13.5C 44.9587,13.5674 46.2921,13.2341 47.5,12.5 Z"/></g>
<g><path style="opacity:0.753" fill="#ddba98" d="M 32.5,16.5 C 32.369,17.2389 32.5357,17.9056 33,18.5C 39.8231,15.7763 40.1564,16.443 34,20.5C 32.699,20.3613 31.8656,19.6946 31.5,18.5C 31.3284,17.5084 31.6618,16.8417 32.5,16.5 Z"/></g>
<g><path style="opacity:1" fill="#664334" d="M 75.5,21.5 C 74.4664,22.6871 73.133,23.5204 71.5,24C 73.2597,27.3878 72.593,28.5544 69.5,27.5C 69.2882,25.6159 68.2882,24.2826 66.5,23.5C 68.7476,22.676 68.9142,21.676 67,20.5C 65.9207,22.3937 64.5874,22.727 63,21.5C 62.4604,23.1346 62.9604,24.4679 64.5,25.5C 63.5754,26.5624 62.5754,26.5624 61.5,25.5C 60.1986,24.36 59.0319,23.0267 58,21.5C 57.586,21.9574 57.086,22.2907 56.5,22.5C 53.2283,21.0013 49.895,20.0013 46.5,19.5C 54.045,19.7347 61.545,19.4014 69,18.5C 71.3242,19.4158 73.4909,20.4158 75.5,21.5 Z"/></g>
<g><path style="opacity:1" fill="#6b4736" d="M 82.5,17.5 C 85.5219,17.804 88.5219,18.304 91.5,19C 92.056,19.3826 92.3893,19.8826 92.5,20.5C 89.8229,19.3855 87.1562,19.3855 84.5,20.5C 87.5565,20.9382 90.2231,22.1049 92.5,24C 91.5509,24.6172 90.7175,24.4506 90,23.5C 89.5357,24.0944 89.369,24.7611 89.5,25.5C 89.573,27.0269 88.9063,28.0269 87.5,28.5C 87.5,27.8333 87.5,27.1667 87.5,26.5C 88.3855,24.7298 87.5521,23.7298 85,23.5C 82.2007,24.237 82.0341,25.0703 84.5,26C 83.0617,28.5148 82.7284,31.0148 83.5,33.5C 81.7586,30.3575 79.7586,27.3575 77.5,24.5C 76.5987,23.7095 75.9321,22.7095 75.5,21.5C 73.4909,20.4158 71.3242,19.4158 69,18.5C 61.545,19.4014 54.045,19.7347 46.5,19.5C 46.5,19.1667 46.5,18.8333 46.5,18.5C 47.5,17.8333 48.5,17.1667 49.5,16.5C 52.6044,15.1593 55.4377,15.4926 58,17.5C 57.9227,16.2624 58.0894,15.2624 58.5,14.5C 65.2528,16.4912 72.0861,18.1579 79,19.5C 80.6991,19.6134 81.8658,18.9468 82.5,17.5 Z"/></g>
<g><path style="opacity:1" fill="#6f5140" d="M 46.5,18.5 C 46.5,18.8333 46.5,19.1667 46.5,19.5C 49.895,20.0013 53.2283,21.0013 56.5,22.5C 57.086,22.2907 57.586,21.9574 58,21.5C 59.0319,23.0267 60.1986,24.36 61.5,25.5C 60.5595,28.1251 59.3928,28.1251 58,25.5C 57.9637,27.5722 58.4637,29.5722 59.5,31.5C 58.0413,31.5674 56.7079,31.2341 55.5,30.5C 53.312,29.3773 50.9787,29.3773 48.5,30.5C 48.0618,30.5654 47.7284,30.3988 47.5,30C 48.8333,28.6667 50.1667,27.3333 51.5,26C 48.2493,25.2799 45.2493,24.1132 42.5,22.5C 43.1667,20.5 44.5,19.1667 46.5,18.5 Z"/></g>
<g><path style="opacity:1" fill="#96674e" d="M 78.5,11.5 C 83.4564,11.905 88.1231,13.2383 92.5,15.5C 95.8091,19.81 99.4758,23.81 103.5,27.5C 102.833,27.5 102.167,27.5 101.5,27.5C 100.115,26.4264 98.9487,25.0931 98,23.5C 97.6174,24.056 97.1174,24.3893 96.5,24.5C 95.5,23.1667 94.5,21.8333 93.5,20.5C 93.4257,18.5891 92.4257,17.4224 90.5,17C 87.4937,16.6676 84.6604,15.8343 82,14.5C 79.6793,15.3613 78.5126,14.3613 78.5,11.5 Z"/></g>
<g><path style="opacity:1" fill="#86654f" d="M 49.5,16.5 C 48.5,17.1667 47.5,17.8333 46.5,18.5C 44.5,19.1667 43.1667,20.5 42.5,22.5C 41.7321,23.2625 41.2321,24.2625 41,25.5C 38.3504,22.7826 35.8504,22.9493 33.5,26C 34.3567,26.6891 35.0233,27.5224 35.5,28.5C 31.9572,29.969 28.2905,30.969 24.5,31.5C 25.1237,29.246 26.457,27.5794 28.5,26.5C 31.1444,24.3719 34.1444,22.8719 37.5,22C 37.1667,21.6667 36.8333,21.3333 36.5,21C 40.9049,19.4521 45.2382,17.9521 49.5,16.5 Z"/></g>
<g><path style="opacity:1" fill="#4a2e21" d="M 92.5,20.5 C 92.8333,20.5 93.1667,20.5 93.5,20.5C 94.5,21.8333 95.5,23.1667 96.5,24.5C 100.926,31.6644 104.926,38.6644 108.5,45.5C 106.955,46.4519 105.288,46.7852 103.5,46.5C 103.5,45.5 103.5,44.5 103.5,43.5C 103.567,41.5992 103.233,39.7659 102.5,38C 100.167,34.1667 97.8333,30.3333 95.5,26.5C 93.5914,25.6518 91.5914,25.3184 89.5,25.5C 89.369,24.7611 89.5357,24.0944 90,23.5C 90.7175,24.4506 91.5509,24.6172 92.5,24C 90.2231,22.1049 87.5565,20.9382 84.5,20.5C 87.1562,19.3855 89.8229,19.3855 92.5,20.5 Z"/></g>
<g><path style="opacity:1" fill="#55372a" d="M 69.5,27.5 C 70.347,28.9663 71.6803,29.7996 73.5,30C 71.8876,30.7203 70.3876,30.5536 69,29.5C 68.5357,30.0944 68.369,30.7611 68.5,31.5C 68.1583,32.3382 67.4916,32.6716 66.5,32.5C 64.283,31.6314 61.9496,31.298 59.5,31.5C 58.4637,29.5722 57.9637,27.5722 58,25.5C 59.3928,28.1251 60.5595,28.1251 61.5,25.5C 62.5754,26.5624 63.5754,26.5624 64.5,25.5C 62.9604,24.4679 62.4604,23.1346 63,21.5C 64.5874,22.727 65.9207,22.3937 67,20.5C 68.9142,21.676 68.7476,22.676 66.5,23.5C 68.2882,24.2826 69.2882,25.6159 69.5,27.5 Z"/></g>
<g><path style="opacity:1" fill="#714e3d" d="M 75.5,21.5 C 75.9321,22.7095 76.5987,23.7095 77.5,24.5C 76.0864,26.1385 76.4197,27.4718 78.5,28.5C 74.3834,29.0784 74.7167,30.2451 79.5,32C 77.8753,32.8525 77.5419,33.8525 78.5,35C 77.2575,35.3114 76.2575,34.8114 75.5,33.5C 74.914,33.7093 74.414,34.0426 74,34.5C 72.2591,33.2423 70.4258,32.2423 68.5,31.5C 68.369,30.7611 68.5357,30.0944 69,29.5C 70.3876,30.5536 71.8876,30.7203 73.5,30C 71.6803,29.7996 70.347,28.9663 69.5,27.5C 72.593,28.5544 73.2597,27.3878 71.5,24C 73.133,23.5204 74.4664,22.6871 75.5,21.5 Z"/></g>
<g><path style="opacity:1" fill="#291c12" d="M 55.5,30.5 C 51.1083,31.3917 48.6083,34.0584 48,38.5C 47.51,37.2068 47.3433,35.8734 47.5,34.5C 47.5,34.1667 47.5,33.8333 47.5,33.5C 48.1098,32.609 48.4431,31.609 48.5,30.5C 50.9787,29.3773 53.312,29.3773 55.5,30.5 Z"/></g>
<g><path style="opacity:1" fill="#735442" d="M 42.5,22.5 C 45.2493,24.1132 48.2493,25.2799 51.5,26C 50.1667,27.3333 48.8333,28.6667 47.5,30C 47.7284,30.3988 48.0618,30.5654 48.5,30.5C 48.4431,31.609 48.1098,32.609 47.5,33.5C 45.2532,33.9153 43.0865,34.5819 41,35.5C 38.0459,35.4056 37.8792,34.9056 40.5,34C 39.8333,33.8333 39.1667,33.6667 38.5,33.5C 35.8072,34.71 33.1405,34.71 30.5,33.5C 29.479,34.0016 29.3123,34.6683 30,35.5C 31.3988,36.2266 32.8988,36.7266 34.5,37C 34.1667,37.3333 33.8333,37.6667 33.5,38C 30.8806,37.9167 28.214,37.75 25.5,37.5C 23.8102,37.1436 22.8102,36.1436 22.5,34.5C 24.0481,34.1788 24.7148,33.1788 24.5,31.5C 28.2905,30.969 31.9572,29.969 35.5,28.5C 35.0233,27.5224 34.3567,26.6891 33.5,26C 35.8504,22.9493 38.3504,22.7826 41,25.5C 41.2321,24.2625 41.7321,23.2625 42.5,22.5 Z"/></g>
<g><path style="opacity:1" fill="#4d3429" d="M 55.5,30.5 C 56.7079,31.2341 58.0413,31.5674 59.5,31.5C 61.9496,31.298 64.283,31.6314 66.5,32.5C 70.9565,35.4332 74.6231,39.2666 77.5,44C 76.2881,45.1068 76.6214,45.6068 78.5,45.5C 78.62,46.5862 79.2867,47.2528 80.5,47.5C 82.7033,46.2326 85.0367,45.2326 87.5,44.5C 88.5,44.5 89.5,44.5 90.5,44.5C 87.0912,45.3724 84.0912,47.039 81.5,49.5C 79.6583,51.1898 78.325,53.1898 77.5,55.5C 76.6522,54.375 75.6522,54.375 74.5,55.5C 73.3398,54.735 72.3398,53.735 71.5,52.5C 73.2012,52.8104 74.8678,52.3104 76.5,51C 74.7091,50.5848 73.3757,49.5848 72.5,48C 71.2068,47.51 69.8734,47.3433 68.5,47.5C 67.477,44.6075 67.477,41.7742 68.5,39C 64.4554,37.2272 60.6221,35.0605 57,32.5C 56.5357,33.0944 56.369,33.7611 56.5,34.5C 50.8736,34.3695 49.5402,36.3695 52.5,40.5C 52.5,41.1667 52.1667,41.5 51.5,41.5C 49.8333,41.5 48.1667,41.5 46.5,41.5C 46.1984,38.9407 46.5318,36.6074 47.5,34.5C 47.3433,35.8734 47.51,37.2068 48,38.5C 48.6083,34.0584 51.1083,31.3917 55.5,30.5 Z"/></g>
<g><path style="opacity:1" fill="#604031" d="M 77.5,24.5 C 79.7586,27.3575 81.7586,30.3575 83.5,33.5C 83.9382,33.4346 84.2716,33.6012 84.5,34C 83.2341,34.3095 82.0674,34.8095 81,35.5C 80.6667,34.8333 80.3333,34.1667 80,33.5C 79.0701,36.85 79.9035,39.6833 82.5,42C 81.4677,43.6268 80.1344,44.7934 78.5,45.5C 76.6214,45.6068 76.2881,45.1068 77.5,44C 74.6231,39.2666 70.9565,35.4332 66.5,32.5C 67.4916,32.6716 68.1583,32.3382 68.5,31.5C 70.4258,32.2423 72.2591,33.2423 74,34.5C 74.414,34.0426 74.914,33.7093 75.5,33.5C 76.2575,34.8114 77.2575,35.3114 78.5,35C 77.5419,33.8525 77.8753,32.8525 79.5,32C 74.7167,30.2451 74.3834,29.0784 78.5,28.5C 76.4197,27.4718 76.0864,26.1385 77.5,24.5 Z"/></g>
<g><path style="opacity:1" fill="#3f2e25" d="M 89.5,25.5 C 91.5914,25.3184 93.5914,25.6518 95.5,26.5C 97.8333,30.3333 100.167,34.1667 102.5,38C 103.233,39.7659 103.567,41.5992 103.5,43.5C 103.167,43.5 102.833,43.5 102.5,43.5C 102.011,42.0048 101.345,40.6715 100.5,39.5C 98.9857,35.4685 96.319,32.4685 92.5,30.5C 90.8333,29.8333 89.1667,29.1667 87.5,28.5C 88.9063,28.0269 89.573,27.0269 89.5,25.5 Z"/></g>
<g><path style="opacity:1" fill="#a7775a" d="M 116.5,33.5 C 117.167,35.8333 117.833,38.1667 118.5,40.5C 117.5,41.8333 116.5,41.8333 115.5,40.5C 111.586,36.2456 107.586,31.9123 103.5,27.5C 99.4758,23.81 95.8091,19.81 92.5,15.5C 93.1499,15.1961 93.8165,14.8627 94.5,14.5C 97.8284,18.4869 101.828,21.4869 106.5,23.5C 106.351,24.552 106.517,25.552 107,26.5C 107.604,24.3143 108.77,24.1476 110.5,26C 109.669,29.0216 111.002,30.5216 114.5,30.5C 114.285,32.1788 114.952,33.1788 116.5,33.5 Z"/></g>
<g><path style="opacity:1" fill="#8a6d56" d="M 24.5,31.5 C 24.7148,33.1788 24.0481,34.1788 22.5,34.5C 19.6257,34.5489 16.7923,34.2156 14,33.5C 11.7849,33.8996 9.95157,34.8996 8.5,36.5C 6.97306,36.427 5.97306,37.0937 5.5,38.5C 4.83333,38.8333 4.16667,39.1667 3.5,39.5C 4.92744,36.2364 7.26077,33.7364 10.5,32C 15.2819,31.794 19.9486,31.6273 24.5,31.5 Z"/></g>
<g><path style="opacity:1" fill="#dfdedb" d="M 92.5,30.5 C 96.319,32.4685 98.9857,35.4685 100.5,39.5C 100.715,42.1437 100.715,44.477 100.5,46.5C 99.2719,45.6935 98.2719,44.6935 97.5,43.5C 96.2332,39.1833 93.5665,37.5166 89.5,38.5C 88.8826,38.3893 88.3826,38.056 88,37.5C 86.2871,32.8009 87.7871,30.4676 92.5,30.5 Z"/></g>
<g><path style="opacity:1" fill="#291b16" d="M 56.5,34.5 C 58.6125,35.4396 60.6125,36.6063 62.5,38C 62.1667,38.3333 61.8333,38.6667 61.5,39C 62.5786,39.956 63.7453,40.7894 65,41.5C 67.3414,45.8252 69.1748,50.3252 70.5,55C 69.6634,56.0113 69.33,57.1779 69.5,58.5C 69.5,59.1667 69.1667,59.5 68.5,59.5C 66.9414,55.6002 65.4414,51.6002 64,47.5C 61.7849,42.477 57.9516,40.1437 52.5,40.5C 49.5402,36.3695 50.8736,34.3695 56.5,34.5 Z"/></g>
<g><path style="opacity:1" fill="#927a68" d="M 87.5,26.5 C 87.5,27.1667 87.5,27.8333 87.5,28.5C 89.1667,29.1667 90.8333,29.8333 92.5,30.5C 87.7871,30.4676 86.2871,32.8009 88,37.5C 88.3826,38.056 88.8826,38.3893 89.5,38.5C 89.3253,40.6208 89.6586,42.6208 90.5,44.5C 89.5,44.5 88.5,44.5 87.5,44.5C 87.9817,43.5837 88.315,42.5837 88.5,41.5C 86.3578,36.3601 85.5245,31.0267 86,25.5C 86.3826,26.056 86.8826,26.3893 87.5,26.5 Z"/></g>
<g><path style="opacity:1" fill="#895c45" d="M 101.5,27.5 C 102.167,27.5 102.833,27.5 103.5,27.5C 107.586,31.9123 111.586,36.2456 115.5,40.5C 114.119,42.2741 114.452,43.7741 116.5,45C 114.416,45.6972 112.749,46.8639 111.5,48.5C 110.722,47.8444 110.056,47.0111 109.5,46C 109.892,44.9895 110.559,44.4895 111.5,44.5C 109.479,39.7487 107.479,35.082 105.5,30.5C 104.127,30.6567 102.793,30.49 101.5,30C 102.598,29.2303 102.598,28.397 101.5,27.5 Z"/></g>
<g><path style="opacity:1" fill="#38241d" d="M 21.5,36.5 C 20.962,38.1172 20.6287,39.7839 20.5,41.5C 17.9183,47.8265 16.2516,54.4932 15.5,61.5C 12.2624,61.6514 9.92906,60.3181 8.5,57.5C 11.5951,51.8238 12.2617,45.8238 10.5,39.5C 10.7093,38.914 11.0426,38.414 11.5,38C 14.9194,37.7515 18.2527,37.2515 21.5,36.5 Z"/></g>
<g><path style="opacity:1" fill="#4f372b" d="M 21.5,36.5 C 18.2527,37.2515 14.9194,37.7515 11.5,38C 11.0426,38.414 10.7093,38.914 10.5,39.5C 12.2617,45.8238 11.5951,51.8238 8.5,57.5C 9.92906,60.3181 12.2624,61.6514 15.5,61.5C 16.1667,61.5 16.8333,61.5 17.5,61.5C 16.9779,64.6612 17.6445,67.8279 19.5,71C 18.1772,71.8159 17.5106,72.9826 17.5,74.5C 16.0966,71.0915 15.4299,67.4248 15.5,63.5C 9.70156,63.2838 5.70156,60.6171 3.5,55.5C 2.92278,51.9202 3.92278,48.9202 6.5,46.5C 7.32402,48.7476 8.32402,48.9142 9.5,47C 7.61913,45.8982 5.95247,44.5648 4.5,43C 5.14758,41.5603 5.48091,40.0603 5.5,38.5C 5.97306,37.0937 6.97306,36.427 8.5,36.5C 13.0565,36.2552 17.3898,36.2552 21.5,36.5 Z"/></g>
<g><path style="opacity:1" fill="#654939" d="M 47.5,33.5 C 47.5,33.8333 47.5,34.1667 47.5,34.5C 46.5318,36.6074 46.1984,38.9407 46.5,41.5C 48.1667,41.5 49.8333,41.5 51.5,41.5C 51.5,42.1667 51.5,42.8333 51.5,43.5C 50.3709,45.6282 50.2042,47.9615 51,50.5C 51.6708,51.2524 52.5041,51.5858 53.5,51.5C 52.5876,52.7382 52.4209,54.0715 53,55.5C 55.054,58.0472 56.8874,60.7139 58.5,63.5C 56.4086,63.6816 54.4086,63.3482 52.5,62.5C 51.4717,64.3615 49.9717,65.6948 48,66.5C 47.6886,67.7425 48.1886,68.7425 49.5,69.5C 48.9747,70.1924 48.3081,70.6924 47.5,71C 49.1749,71.9853 50.8415,72.8186 52.5,73.5C 50.5082,73.3285 48.8415,73.9951 47.5,75.5C 46.8165,75.1373 46.1499,74.8039 45.5,74.5C 45.2969,72.9557 44.6302,71.6223 43.5,70.5C 44.0253,69.8076 44.6919,69.3076 45.5,69C 44.1667,68 44.1667,67 45.5,66C 44.6195,65.2917 43.9528,64.4584 43.5,63.5C 49.9927,63.3399 51.6594,60.5066 48.5,55C 49.3081,54.6924 49.9747,54.1924 50.5,53.5C 49.8728,52.5832 49.5394,51.5832 49.5,50.5C 48.9829,47.7149 48.1495,45.0482 47,42.5C 46.323,44.689 45.1563,45.0224 43.5,43.5C 43.0024,44.6034 42.6691,45.6034 42.5,46.5C 41.8333,45.8333 41.1667,45.1667 40.5,44.5C 39.7425,45.8114 38.7425,46.3114 37.5,46C 37.727,44.8647 38.0604,43.698 38.5,42.5C 39.6086,43.5896 40.6086,43.5896 41.5,42.5C 41.1667,41.5 40.5,40.8333 39.5,40.5C 36.1368,41.1682 32.8034,41.8349 29.5,42.5C 28.791,41.596 27.791,41.2627 26.5,41.5C 26.5674,40.0413 26.2341,38.7079 25.5,37.5C 28.214,37.75 30.8806,37.9167 33.5,38C 33.8333,37.6667 34.1667,37.3333 34.5,37C 32.8988,36.7266 31.3988,36.2266 30,35.5C 29.3123,34.6683 29.479,34.0016 30.5,33.5C 33.1405,34.71 35.8072,34.71 38.5,33.5C 39.1667,33.6667 39.8333,33.8333 40.5,34C 37.8792,34.9056 38.0459,35.4056 41,35.5C 43.0865,34.5819 45.2532,33.9153 47.5,33.5 Z"/></g>
<g><path style="opacity:1" fill="#4c4a43" d="M 97.5,43.5 C 96.2921,42.7659 94.9587,42.4326 93.5,42.5C 92.7095,43.4013 91.7095,44.0679 90.5,44.5C 89.6586,42.6208 89.3253,40.6208 89.5,38.5C 93.5665,37.5166 96.2332,39.1833 97.5,43.5 Z"/></g>
<g><path style="opacity:1" fill="#6e4a36" d="M 101.5,27.5 C 102.598,28.397 102.598,29.2303 101.5,30C 102.793,30.49 104.127,30.6567 105.5,30.5C 107.479,35.082 109.479,39.7487 111.5,44.5C 110.559,44.4895 109.892,44.9895 109.5,46C 110.056,47.0111 110.722,47.8444 111.5,48.5C 110.833,48.8333 110.167,49.1667 109.5,49.5C 107.518,49.0046 105.518,48.5046 103.5,48C 102.62,46.6439 102.286,45.1439 102.5,43.5C 102.833,43.5 103.167,43.5 103.5,43.5C 103.5,44.5 103.5,45.5 103.5,46.5C 105.288,46.7852 106.955,46.4519 108.5,45.5C 104.926,38.6644 100.926,31.6644 96.5,24.5C 97.1174,24.3893 97.6174,24.056 98,23.5C 98.9487,25.0931 100.115,26.4264 101.5,27.5 Z"/></g>
<g><path style="opacity:1" fill="#724e3b" d="M 87.5,26.5 C 86.8826,26.3893 86.3826,26.056 86,25.5C 85.5245,31.0267 86.3578,36.3601 88.5,41.5C 88.315,42.5837 87.9817,43.5837 87.5,44.5C 85.0367,45.2326 82.7033,46.2326 80.5,47.5C 79.2867,47.2528 78.62,46.5862 78.5,45.5C 80.1344,44.7934 81.4677,43.6268 82.5,42C 79.9035,39.6833 79.0701,36.85 80,33.5C 80.3333,34.1667 80.6667,34.8333 81,35.5C 82.0674,34.8095 83.2341,34.3095 84.5,34C 84.2716,33.6012 83.9382,33.4346 83.5,33.5C 82.7284,31.0148 83.0617,28.5148 84.5,26C 82.0341,25.0703 82.2007,24.237 85,23.5C 87.5521,23.7298 88.3855,24.7298 87.5,26.5 Z"/></g>
<g><path style="opacity:1" fill="#dad8d4" d="M 93.5,42.5 C 89.69,41.2458 89.69,40.2458 93.5,39.5C 93.5,40.5 93.5,41.5 93.5,42.5 Z"/></g>
<g><path style="opacity:1" fill="#5b4133" d="M 22.5,34.5 C 22.8102,36.1436 23.8102,37.1436 25.5,37.5C 26.2341,38.7079 26.5674,40.0413 26.5,41.5C 27.791,41.2627 28.791,41.596 29.5,42.5C 29.0825,43.2216 28.4158,43.7216 27.5,44C 29.8087,44.7562 31.8087,44.2562 33.5,42.5C 35.4812,43.1054 35.8146,44.1054 34.5,45.5C 36.0461,46.684 37.7127,47.684 39.5,48.5C 37.6684,49.0568 36.3351,50.0568 35.5,51.5C 35.631,52.2389 35.4643,52.9056 35,53.5C 33.4375,53.7408 31.9375,53.2408 30.5,52C 31.6226,50.9563 32.9559,50.2896 34.5,50C 34.0698,49.0805 33.7365,48.2472 33.5,47.5C 32.5745,48.6405 31.7412,48.6405 31,47.5C 30.0771,49.9242 28.5771,51.9242 26.5,53.5C 25.4777,53.1445 24.811,52.4778 24.5,51.5C 27.3382,49.6941 27.0048,48.6941 23.5,48.5C 24.7098,45.4803 23.7098,43.1469 20.5,41.5C 20.6287,39.7839 20.962,38.1172 21.5,36.5C 17.3898,36.2552 13.0565,36.2552 8.5,36.5C 9.95157,34.8996 11.7849,33.8996 14,33.5C 16.7923,34.2156 19.6257,34.5489 22.5,34.5 Z"/></g>
<g><path style="opacity:0.976" fill="#c39b80" d="M 116.5,30.5 C 119.807,34.4263 122.64,38.7596 125,43.5C 126.645,48.77 128.478,53.9367 130.5,59C 130.571,61.1163 130.238,63.2829 129.5,65.5C 127.953,63.0316 126.62,60.365 125.5,57.5C 125.683,50.6957 123.349,45.029 118.5,40.5C 117.833,38.1667 117.167,35.8333 116.5,33.5C 116.5,32.5 116.5,31.5 116.5,30.5 Z"/></g>
<g><path style="opacity:1" fill="#634a39" d="M 5.5,38.5 C 5.48091,40.0603 5.14758,41.5603 4.5,43C 5.95247,44.5648 7.61913,45.8982 9.5,47C 8.32402,48.9142 7.32402,48.7476 6.5,46.5C 3.92278,48.9202 2.92278,51.9202 3.5,55.5C 1.98274,53.5379 1.31608,51.2046 1.5,48.5C 1.44741,45.2153 2.11408,42.2153 3.5,39.5C 4.16667,39.1667 4.83333,38.8333 5.5,38.5 Z"/></g>
<g><path style="opacity:1" fill="#69655e" d="M 52.5,40.5 C 57.9516,40.1437 61.7849,42.477 64,47.5C 65.4414,51.6002 66.9414,55.6002 68.5,59.5C 68.44,60.0431 68.1067,60.3764 67.5,60.5C 66.8182,59.7573 66.1515,59.0906 65.5,58.5C 64.6847,52.3272 61.6847,47.6605 56.5,44.5C 55.2524,42.31 53.5857,41.9766 51.5,43.5C 51.5,42.8333 51.5,42.1667 51.5,41.5C 52.1667,41.5 52.5,41.1667 52.5,40.5 Z"/></g>
<g><path style="opacity:1" fill="#b6b0a6" d="M 56.5,44.5 C 55.1667,44.5 53.8333,44.5 52.5,44.5C 52.4021,46.5529 53.0687,48.2196 54.5,49.5C 54.5,49.8333 54.5,50.1667 54.5,50.5C 53.8333,50.5 53.5,50.8333 53.5,51.5C 52.5041,51.5858 51.6708,51.2524 51,50.5C 50.2042,47.9615 50.3709,45.6282 51.5,43.5C 53.5857,41.9766 55.2524,42.31 56.5,44.5 Z"/></g>
<g><path style="opacity:1" fill="#3d261c" d="M 74.5,55.5 C 72.6675,56.2485 71.0009,57.2485 69.5,58.5C 69.33,57.1779 69.6634,56.0113 70.5,55C 69.1748,50.3252 67.3414,45.8252 65,41.5C 63.7453,40.7894 62.5786,39.956 61.5,39C 61.8333,38.6667 62.1667,38.3333 62.5,38C 60.6125,36.6063 58.6125,35.4396 56.5,34.5C 56.369,33.7611 56.5357,33.0944 57,32.5C 60.6221,35.0605 64.4554,37.2272 68.5,39C 67.477,41.7742 67.477,44.6075 68.5,47.5C 69.8734,47.3433 71.2068,47.51 72.5,48C 73.3757,49.5848 74.7091,50.5848 76.5,51C 74.8678,52.3104 73.2012,52.8104 71.5,52.5C 72.3398,53.735 73.3398,54.735 74.5,55.5 Z"/></g>
<g><path style="opacity:1" fill="#ced0c8" d="M 56.5,44.5 C 61.6847,47.6605 64.6847,52.3272 65.5,58.5C 65.6716,59.4916 65.3382,60.1583 64.5,60.5C 63.6062,57.0434 61.9395,54.0434 59.5,51.5C 58.2196,50.0687 56.5529,49.4021 54.5,49.5C 53.0687,48.2196 52.4021,46.5529 52.5,44.5C 53.8333,44.5 55.1667,44.5 56.5,44.5 Z"/></g>
<g><path style="opacity:1" fill="#5d5e53" d="M 97.5,43.5 C 98.2719,44.6935 99.2719,45.6935 100.5,46.5C 101.5,47.8333 102.5,49.1667 103.5,50.5C 103.768,52.099 103.434,53.4324 102.5,54.5C 102.5,53.1667 102.5,51.8333 102.5,50.5C 99.0861,50.2642 95.7527,49.5975 92.5,48.5C 94.1493,46.6666 95.8159,44.9999 97.5,43.5 Z"/></g>
<g><path style="opacity:1" fill="#563a2c" d="M 49.5,50.5 C 48.5,50.5 47.5,50.5 46.5,50.5C 46.719,49.325 46.3857,48.325 45.5,47.5C 45.6954,51.5874 44.0287,55.0874 40.5,58C 41.7911,59.2917 41.7911,60.4583 40.5,61.5C 40.1667,61.5 39.8333,61.5 39.5,61.5C 38.3398,60.735 37.3398,59.735 36.5,58.5C 37.1667,58.1667 37.8333,57.8333 38.5,57.5C 35.6405,54.8546 35.9738,52.6879 39.5,51C 38.0715,50.4209 36.7382,50.5876 35.5,51.5C 36.3351,50.0568 37.6684,49.0568 39.5,48.5C 37.7127,47.684 36.0461,46.684 34.5,45.5C 35.8146,44.1054 35.4812,43.1054 33.5,42.5C 31.8087,44.2562 29.8087,44.7562 27.5,44C 28.4158,43.7216 29.0825,43.2216 29.5,42.5C 32.8034,41.8349 36.1368,41.1682 39.5,40.5C 40.5,40.8333 41.1667,41.5 41.5,42.5C 40.6086,43.5896 39.6086,43.5896 38.5,42.5C 38.0604,43.698 37.727,44.8647 37.5,46C 38.7425,46.3114 39.7425,45.8114 40.5,44.5C 41.1667,45.1667 41.8333,45.8333 42.5,46.5C 42.6691,45.6034 43.0024,44.6034 43.5,43.5C 45.1563,45.0224 46.323,44.689 47,42.5C 48.1495,45.0482 48.9829,47.7149 49.5,50.5 Z"/></g>
<g><path style="opacity:1" fill="#626762" d="M 54.5,50.5 C 54.5,50.1667 54.5,49.8333 54.5,49.5C 56.5529,49.4021 58.2196,50.0687 59.5,51.5C 58.5655,52.5676 58.2322,53.901 58.5,55.5C 57.209,55.7373 56.209,55.404 55.5,54.5C 58.1667,53.5 58.1667,52.5 55.5,51.5C 55.5,50.8333 55.1667,50.5 54.5,50.5 Z"/></g>
<g><path style="opacity:1" fill="#35372f" d="M 93.5,42.5 C 94.9587,42.4326 96.2921,42.7659 97.5,43.5C 95.8159,44.9999 94.1493,46.6666 92.5,48.5C 95.7527,49.5975 99.0861,50.2642 102.5,50.5C 102.5,51.8333 102.5,53.1667 102.5,54.5C 102.5,54.8333 102.5,55.1667 102.5,55.5C 101.833,55.8333 101.167,56.1667 100.5,56.5C 100.5,55.1667 100.5,53.8333 100.5,52.5C 95.8809,51.6864 91.2142,51.3531 86.5,51.5C 85.0697,50.4625 83.403,49.7959 81.5,49.5C 84.0912,47.039 87.0912,45.3724 90.5,44.5C 91.7095,44.0679 92.7095,43.4013 93.5,42.5 Z"/></g>
<g><path style="opacity:1" fill="#8c6148" d="M 115.5,40.5 C 116.5,41.8333 117.5,41.8333 118.5,40.5C 118.586,41.4959 118.252,42.3292 117.5,43C 119.797,47.1742 121.797,51.5076 123.5,56C 123.836,57.0299 124.503,57.5299 125.5,57.5C 125.5,58.8333 125.5,60.1667 125.5,61.5C 121.861,59.8163 118.861,57.483 116.5,54.5C 113.865,53.1891 111.531,51.5224 109.5,49.5C 110.167,49.1667 110.833,48.8333 111.5,48.5C 112.749,46.8639 114.416,45.6972 116.5,45C 114.452,43.7741 114.119,42.2741 115.5,40.5 Z"/></g>
<g><path style="opacity:1" fill="#ab7f64" d="M 118.5,40.5 C 123.349,45.029 125.683,50.6957 125.5,57.5C 124.503,57.5299 123.836,57.0299 123.5,56C 121.797,51.5076 119.797,47.1742 117.5,43C 118.252,42.3292 118.586,41.4959 118.5,40.5 Z"/></g>
<g><path style="opacity:1" fill="#4d3429" d="M 35.5,51.5 C 36.7382,50.5876 38.0715,50.4209 39.5,51C 35.9738,52.6879 35.6405,54.8546 38.5,57.5C 37.8333,57.8333 37.1667,58.1667 36.5,58.5C 37.3398,59.735 38.3398,60.735 39.5,61.5C 35.7887,61.3863 32.4554,60.3863 29.5,58.5C 29.9175,57.7784 30.5842,57.2784 31.5,57C 29.6226,56.4242 27.7892,56.5909 26,57.5C 23.8487,56.1882 22.3487,54.3549 21.5,52C 22.448,51.5172 23.448,51.3505 24.5,51.5C 24.811,52.4778 25.4777,53.1445 26.5,53.5C 28.5771,51.9242 30.0771,49.9242 31,47.5C 31.7412,48.6405 32.5745,48.6405 33.5,47.5C 33.7365,48.2472 34.0698,49.0805 34.5,50C 32.9559,50.2896 31.6226,50.9563 30.5,52C 31.9375,53.2408 33.4375,53.7408 35,53.5C 35.4643,52.9056 35.631,52.2389 35.5,51.5 Z"/></g>
<g><path style="opacity:1" fill="#1a1915" d="M 81.5,49.5 C 83.403,49.7959 85.0697,50.4625 86.5,51.5C 87.2899,52.7942 88.2899,53.9609 89.5,55C 85.7118,57.6555 86.3784,59.3222 91.5,60C 88.854,60.4974 86.1873,60.6641 83.5,60.5C 82.1667,60.1667 80.8333,59.8333 79.5,59.5C 78.0937,59.0269 77.427,58.0269 77.5,56.5C 77.5,56.1667 77.5,55.8333 77.5,55.5C 78.325,53.1898 79.6583,51.1898 81.5,49.5 Z"/></g>
<g><path style="opacity:1" fill="#473026" d="M 20.5,41.5 C 23.7098,43.1469 24.7098,45.4803 23.5,48.5C 27.0048,48.6941 27.3382,49.6941 24.5,51.5C 23.448,51.3505 22.448,51.5172 21.5,52C 22.3487,54.3549 23.8487,56.1882 26,57.5C 27.7892,56.5909 29.6226,56.4242 31.5,57C 30.5842,57.2784 29.9175,57.7784 29.5,58.5C 29.5774,59.7498 30.244,60.5831 31.5,61C 29.2149,62.9536 27.0483,62.787 25,60.5C 23.5064,61.7472 22.0064,61.7472 20.5,60.5C 21.1667,60.1667 21.8333,59.8333 22.5,59.5C 21.2652,56.9557 20.0985,56.9557 19,59.5C 18.6667,58.8333 18.3333,58.1667 18,57.5C 17.51,58.7932 17.3433,60.1266 17.5,61.5C 16.8333,61.5 16.1667,61.5 15.5,61.5C 16.2516,54.4932 17.9183,47.8265 20.5,41.5 Z"/></g>
<g><path style="opacity:1" fill="#24241d" d="M 86.5,51.5 C 91.2142,51.3531 95.8809,51.6864 100.5,52.5C 100.5,53.8333 100.5,55.1667 100.5,56.5C 100.167,57.1667 99.8333,57.8333 99.5,58.5C 98.1667,59.1667 97.1667,60.1667 96.5,61.5C 91.9677,61.8182 87.6344,61.4849 83.5,60.5C 86.1873,60.6641 88.854,60.4974 91.5,60C 86.3784,59.3222 85.7118,57.6555 89.5,55C 88.2899,53.9609 87.2899,52.7942 86.5,51.5 Z"/></g>
<g><path style="opacity:1" fill="#422a22" d="M 29.5,58.5 C 32.4554,60.3863 35.7887,61.3863 39.5,61.5C 39.8333,61.5 40.1667,61.5 40.5,61.5C 40.5,61.8333 40.5,62.1667 40.5,62.5C 39.9478,64.3307 39.9478,65.9974 40.5,67.5C 39.1521,69.4613 37.8187,69.6279 36.5,68C 38.3348,67.0723 38.6682,65.9056 37.5,64.5C 35.684,63.0576 33.684,62.5576 31.5,63C 32.1667,63.3333 32.8333,63.6667 33.5,64C 32.2161,64.6838 31.0495,64.5171 30,63.5C 31.5879,65.7371 32.4212,68.4038 32.5,71.5C 31.0695,71.5792 29.7362,71.2458 28.5,70.5C 27.8333,71.1667 27.1667,71.8333 26.5,72.5C 24.9309,71.286 24.0976,69.6193 24,67.5C 23.6049,70.2066 23.1049,72.8733 22.5,75.5C 20.7839,75.3713 19.1172,75.038 17.5,74.5C 17.5106,72.9826 18.1772,71.8159 19.5,71C 17.6445,67.8279 16.9779,64.6612 17.5,61.5C 17.3433,60.1266 17.51,58.7932 18,57.5C 18.3333,58.1667 18.6667,58.8333 19,59.5C 20.0985,56.9557 21.2652,56.9557 22.5,59.5C 21.8333,59.8333 21.1667,60.1667 20.5,60.5C 22.0064,61.7472 23.5064,61.7472 25,60.5C 27.0483,62.787 29.2149,62.9536 31.5,61C 30.244,60.5831 29.5774,59.7498 29.5,58.5 Z"/></g>
<g><path style="opacity:1" fill="#5c4030" d="M 49.5,50.5 C 49.5394,51.5832 49.8728,52.5832 50.5,53.5C 49.9747,54.1924 49.3081,54.6924 48.5,55C 51.6594,60.5066 49.9927,63.3399 43.5,63.5C 42.609,62.8902 41.609,62.5569 40.5,62.5C 40.5,62.1667 40.5,61.8333 40.5,61.5C 41.7911,60.4583 41.7911,59.2917 40.5,58C 44.0287,55.0874 45.6954,51.5874 45.5,47.5C 46.3857,48.325 46.719,49.325 46.5,50.5C 47.5,50.5 48.5,50.5 49.5,50.5 Z"/></g>
<g><path style="opacity:1" fill="#26221b" d="M 54.5,50.5 C 55.1667,50.5 55.5,50.8333 55.5,51.5C 55.5,52.5 55.5,53.5 55.5,54.5C 56.209,55.404 57.209,55.7373 58.5,55.5C 58.2322,53.901 58.5655,52.5676 59.5,51.5C 61.9395,54.0434 63.6062,57.0434 64.5,60.5C 64.4729,62.1993 63.8062,63.5326 62.5,64.5C 61.0413,64.5674 59.7079,64.2341 58.5,63.5C 56.8874,60.7139 55.054,58.0472 53,55.5C 52.4209,54.0715 52.5876,52.7382 53.5,51.5C 53.5,50.8333 53.8333,50.5 54.5,50.5 Z"/></g>
<g><path style="opacity:1" fill="#dee3dd" d="M 55.5,51.5 C 58.1667,52.5 58.1667,53.5 55.5,54.5C 55.5,53.5 55.5,52.5 55.5,51.5 Z"/></g>
<g><path style="opacity:1" fill="#62523e" d="M 79.5,59.5 C 80.8333,59.8333 82.1667,60.1667 83.5,60.5C 87.6344,61.4849 91.9677,61.8182 96.5,61.5C 96.5,62.1667 96.1667,62.5 95.5,62.5C 94.8333,62.5 94.1667,62.5 93.5,62.5C 90.2569,63.58 86.9236,63.7466 83.5,63C 81.4497,62.5838 80.1164,61.4171 79.5,59.5 Z"/></g>
<g><path style="opacity:1" fill="#dacdb0" d="M 100.5,39.5 C 101.345,40.6715 102.011,42.0048 102.5,43.5C 102.286,45.1439 102.62,46.6439 103.5,48C 105.518,48.5046 107.518,49.0046 109.5,49.5C 111.531,51.5224 113.865,53.1891 116.5,54.5C 117.63,56.3146 118.296,58.3146 118.5,60.5C 118.67,62.8484 119.003,65.1817 119.5,67.5C 118.818,69.8409 118.151,72.1743 117.5,74.5C 116.351,74.2089 115.684,73.3756 115.5,72C 115.614,67.1334 113.781,63.3001 110,60.5C 109.415,57.1456 108.082,54.1456 106,51.5C 105.667,52.1667 105.333,52.8333 105,53.5C 104.768,52.2625 104.268,51.2625 103.5,50.5C 102.5,49.1667 101.5,47.8333 100.5,46.5C 100.715,44.477 100.715,42.1437 100.5,39.5 Z"/></g>
<g><path style="opacity:1" fill="#897154" d="M 99.5,58.5 C 99.2606,60.4672 99.5939,62.3005 100.5,64C 99.8333,64.3333 99.1667,64.6667 98.5,65C 102.358,67.5667 104.525,71.0667 105,75.5C 103.698,76.0848 102.531,76.7515 101.5,77.5C 100.395,76.3995 99.0618,75.7329 97.5,75.5C 97.9463,70.9289 97.2797,66.5956 95.5,62.5C 96.1667,62.5 96.5,62.1667 96.5,61.5C 97.1667,60.1667 98.1667,59.1667 99.5,58.5 Z"/></g>
<g><path style="opacity:1" fill="#9c8465" d="M 102.5,55.5 C 102.539,56.5832 102.873,57.5832 103.5,58.5C 102.624,59.2508 101.624,59.7508 100.5,60C 102,62.1667 103.833,64 106,65.5C 106.49,66.7932 106.657,68.1266 106.5,69.5C 107.167,72.1667 107.833,74.8333 108.5,77.5C 107.209,77.2627 106.209,77.596 105.5,78.5C 104.833,78.5 104.167,78.5 103.5,78.5C 102.833,78.1667 102.167,77.8333 101.5,77.5C 102.531,76.7515 103.698,76.0848 105,75.5C 104.525,71.0667 102.358,67.5667 98.5,65C 99.1667,64.6667 99.8333,64.3333 100.5,64C 99.5939,62.3005 99.2606,60.4672 99.5,58.5C 99.8333,57.8333 100.167,57.1667 100.5,56.5C 101.167,56.1667 101.833,55.8333 102.5,55.5 Z"/></g>
<g><path style="opacity:1" fill="#4b3228" d="M 40.5,62.5 C 41.609,62.5569 42.609,62.8902 43.5,63.5C 43.9528,64.4584 44.6195,65.2917 45.5,66C 44.1667,67 44.1667,68 45.5,69C 44.6919,69.3076 44.0253,69.8076 43.5,70.5C 44.6302,71.6223 45.2969,72.9557 45.5,74.5C 43.3196,75.8552 41.3196,75.6885 39.5,74C 40.1667,73.6667 40.8333,73.3333 41.5,73C 40.0506,71.883 38.3839,71.2163 36.5,71C 34.4692,66.3369 33.1358,66.5036 32.5,71.5C 32.4212,68.4038 31.5879,65.7371 30,63.5C 31.0495,64.5171 32.2161,64.6838 33.5,64C 32.8333,63.6667 32.1667,63.3333 31.5,63C 33.684,62.5576 35.684,63.0576 37.5,64.5C 38.6682,65.9056 38.3348,67.0723 36.5,68C 37.8187,69.6279 39.1521,69.4613 40.5,67.5C 39.9478,65.9974 39.9478,64.3307 40.5,62.5 Z"/></g>
<g><path style="opacity:1" fill="#745641" d="M 58.5,63.5 C 59.7079,64.2341 61.0413,64.5674 62.5,64.5C 61.8333,65.1667 61.1667,65.8333 60.5,66.5C 57.8938,67.1359 55.3938,67.1359 53,66.5C 52.6652,69.1801 53.4986,71.5134 55.5,73.5C 55.3764,74.1067 55.0431,74.44 54.5,74.5C 54.1583,73.6618 53.4916,73.3284 52.5,73.5C 50.8415,72.8186 49.1749,71.9853 47.5,71C 48.3081,70.6924 48.9747,70.1924 49.5,69.5C 48.1886,68.7425 47.6886,67.7425 48,66.5C 49.9717,65.6948 51.4717,64.3615 52.5,62.5C 54.4086,63.3482 56.4086,63.6816 58.5,63.5 Z"/></g>
<g><path style="opacity:1" fill="#958064" d="M 77.5,56.5 C 77.427,58.0269 78.0937,59.0269 79.5,59.5C 80.1164,61.4171 81.4497,62.5838 83.5,63C 86.9236,63.7466 90.2569,63.58 93.5,62.5C 90.5436,64.3718 88.2103,66.3718 86.5,68.5C 87.6119,69.2652 88.2786,70.2652 88.5,71.5C 83.1296,71.6924 78.1296,70.6924 73.5,68.5C 72.3588,67.661 71.0255,66.9943 69.5,66.5C 67.9713,67.7629 66.3046,68.7629 64.5,69.5C 65.3624,66.4644 67.1958,64.131 70,62.5C 70.414,62.9574 70.914,63.2907 71.5,63.5C 74.1136,61.567 76.1136,59.2336 77.5,56.5 Z"/></g>
<g><path style="opacity:1" fill="#cbb794" d="M 103.5,50.5 C 104.268,51.2625 104.768,52.2625 105,53.5C 105.333,52.8333 105.667,52.1667 106,51.5C 108.082,54.1456 109.415,57.1456 110,60.5C 113.781,63.3001 115.614,67.1334 115.5,72C 115.684,73.3756 116.351,74.2089 117.5,74.5C 116.791,75.404 115.791,75.7373 114.5,75.5C 114.5,74.1667 114.5,72.8333 114.5,71.5C 112.833,71.5 111.167,71.5 109.5,71.5C 108.778,70.4489 107.778,69.7822 106.5,69.5C 106.657,68.1266 106.49,66.7932 106,65.5C 103.833,64 102,62.1667 100.5,60C 101.624,59.7508 102.624,59.2508 103.5,58.5C 102.873,57.5832 102.539,56.5832 102.5,55.5C 102.5,55.1667 102.5,54.8333 102.5,54.5C 103.434,53.4324 103.768,52.099 103.5,50.5 Z"/></g>
<g><path style="opacity:1" fill="#beac8f" d="M 77.5,55.5 C 77.5,55.8333 77.5,56.1667 77.5,56.5C 76.1136,59.2336 74.1136,61.567 71.5,63.5C 70.914,63.2907 70.414,62.9574 70,62.5C 67.1958,64.131 65.3624,66.4644 64.5,69.5C 63.7354,69.0766 62.9021,68.7432 62,68.5C 60.3379,69.9967 58.8379,71.6634 57.5,73.5C 56.4173,72.635 56.2506,71.635 57,70.5C 58.0319,68.9733 59.1986,67.64 60.5,66.5C 61.1667,65.8333 61.8333,65.1667 62.5,64.5C 63.8062,63.5326 64.4729,62.1993 64.5,60.5C 65.3382,60.1583 65.6716,59.4916 65.5,58.5C 66.1515,59.0906 66.8182,59.7573 67.5,60.5C 68.1067,60.3764 68.44,60.0431 68.5,59.5C 69.1667,59.5 69.5,59.1667 69.5,58.5C 71.0009,57.2485 72.6675,56.2485 74.5,55.5C 75.6522,54.375 76.6522,54.375 77.5,55.5 Z"/></g>
<g><path style="opacity:1" fill="#c7b093" d="M 118.5,60.5 C 119.167,61.1667 119.833,61.8333 120.5,62.5C 121.644,66.6478 121.644,70.6478 120.5,74.5C 118.459,78.9517 116.792,83.6184 115.5,88.5C 114.503,88.5299 113.836,88.0299 113.5,87C 115.078,84.0316 115.745,80.8649 115.5,77.5C 112.545,76.5454 110.545,74.5454 109.5,71.5C 111.167,71.5 112.833,71.5 114.5,71.5C 114.5,72.8333 114.5,74.1667 114.5,75.5C 115.791,75.7373 116.791,75.404 117.5,74.5C 118.151,72.1743 118.818,69.8409 119.5,67.5C 119.003,65.1817 118.67,62.8484 118.5,60.5 Z"/></g>
<g><path style="opacity:1" fill="#7d664c" d="M 73.5,68.5 C 78.1296,70.6924 83.1296,71.6924 88.5,71.5C 89.4345,72.5676 89.7678,73.901 89.5,75.5C 82.9586,75.5378 82.9586,76.2045 89.5,77.5C 84.9549,78.4561 80.4549,79.4561 76,80.5C 75.3292,79.7476 74.4959,79.4142 73.5,79.5C 73.8808,77.0582 73.2141,76.3915 71.5,77.5C 71.0024,76.3966 70.6691,75.3966 70.5,74.5C 69.0325,75.6953 67.5325,75.6953 66,74.5C 64.7387,74.7591 63.7387,75.4258 63,76.5C 62.5,76 62,75.5 61.5,75C 65.3235,72.3502 69.3235,70.1835 73.5,68.5 Z"/></g>
<g><path style="opacity:0.936" fill="#a97d66" d="M 125.5,57.5 C 126.62,60.365 127.953,63.0316 129.5,65.5C 129.583,69.3352 128.917,73.0019 127.5,76.5C 127.167,76.5 126.833,76.5 126.5,76.5C 126.779,71.4053 126.445,66.4053 125.5,61.5C 125.5,60.1667 125.5,58.8333 125.5,57.5 Z"/></g>
<g><path style="opacity:1" fill="#452b21" d="M 32.5,71.5 C 33.1358,66.5036 34.4692,66.3369 36.5,71C 38.3839,71.2163 40.0506,71.883 41.5,73C 40.8333,73.3333 40.1667,73.6667 39.5,74C 41.3196,75.6885 43.3196,75.8552 45.5,74.5C 45.5858,75.4959 45.2524,76.3292 44.5,77C 45.7375,77.2321 46.7375,77.7321 47.5,78.5C 45.4086,78.6816 43.4086,78.3482 41.5,77.5C 41.1667,77.8333 40.8333,78.1667 40.5,78.5C 41.376,79.2508 42.376,79.7508 43.5,80C 42.8333,80.1667 42.1667,80.3333 41.5,80.5C 38.3685,78.1169 35.2019,76.4503 32,75.5C 31.5,76 31,76.5 30.5,77C 32.3237,77.66 33.657,78.8267 34.5,80.5C 33.5041,80.5858 32.6708,80.2524 32,79.5C 31.323,81.689 30.1563,82.0224 28.5,80.5C 27.4822,81.1925 26.4822,81.8592 25.5,82.5C 24.6676,81.6715 25.001,80.8382 26.5,80C 24.8659,79.5065 23.1992,79.3398 21.5,79.5C 21.4326,78.0413 21.7659,76.7079 22.5,75.5C 23.1049,72.8733 23.6049,70.2066 24,67.5C 24.0976,69.6193 24.9309,71.286 26.5,72.5C 27.1667,71.8333 27.8333,71.1667 28.5,70.5C 29.7362,71.2458 31.0695,71.5792 32.5,71.5 Z"/></g>
<g><path style="opacity:1" fill="#b39d7f" d="M 93.5,62.5 C 94.1667,62.5 94.8333,62.5 95.5,62.5C 97.2797,66.5956 97.9463,70.9289 97.5,75.5C 97.5674,76.9587 97.2341,78.2921 96.5,79.5C 95.2223,79.2178 94.2223,78.5511 93.5,77.5C 92.1667,76.8333 90.8333,76.1667 89.5,75.5C 89.7678,73.901 89.4345,72.5676 88.5,71.5C 88.2786,70.2652 87.6119,69.2652 86.5,68.5C 88.2103,66.3718 90.5436,64.3718 93.5,62.5 Z"/></g>
<g><path style="opacity:1" fill="#8a7359" d="M 60.5,66.5 C 59.1986,67.64 58.0319,68.9733 57,70.5C 56.2506,71.635 56.4173,72.635 57.5,73.5C 58.8379,71.6634 60.3379,69.9967 62,68.5C 62.9021,68.7432 63.7354,69.0766 64.5,69.5C 66.3046,68.7629 67.9713,67.7629 69.5,66.5C 71.0255,66.9943 72.3588,67.661 73.5,68.5C 69.3235,70.1835 65.3235,72.3502 61.5,75C 62,75.5 62.5,76 63,76.5C 63.7387,75.4258 64.7387,74.7591 66,74.5C 67.5325,75.6953 69.0325,75.6953 70.5,74.5C 70.6691,75.3966 71.0024,76.3966 71.5,77.5C 73.2141,76.3915 73.8808,77.0582 73.5,79.5C 72.8843,80.2022 72.8843,81.2022 73.5,82.5C 71.3718,83.6291 69.0385,83.7958 66.5,83C 66.8333,82.6667 67.1667,82.3333 67.5,82C 64.4976,81.5662 61.8309,80.3995 59.5,78.5C 57.677,79.7472 55.677,80.4139 53.5,80.5C 53.2627,81.791 53.596,82.791 54.5,83.5C 53.0736,84.3412 51.7403,85.3412 50.5,86.5C 50.5,85.8333 50.5,85.1667 50.5,84.5C 52.0323,81.2344 53.3656,77.9011 54.5,74.5C 55.0431,74.44 55.3764,74.1067 55.5,73.5C 53.4986,71.5134 52.6652,69.1801 53,66.5C 55.3938,67.1359 57.8938,67.1359 60.5,66.5 Z"/></g>
<g><path style="opacity:1" fill="#b39a7b" d="M 106.5,69.5 C 107.778,69.7822 108.778,70.4489 109.5,71.5C 110.545,74.5454 112.545,76.5454 115.5,77.5C 115.745,80.8649 115.078,84.0316 113.5,87C 113.836,88.0299 114.503,88.5299 115.5,88.5C 113.733,90.9384 112.399,93.605 111.5,96.5C 109.269,99.8363 107.603,103.503 106.5,107.5C 104.75,108.659 103.75,110.326 103.5,112.5C 101.784,114.025 99.7837,115.025 97.5,115.5C 98.147,113.859 99.147,112.526 100.5,111.5C 100.336,108.813 100.503,106.146 101,103.5C 107.734,100.314 110.901,94.9802 110.5,87.5C 111.371,84.5085 112.371,81.5085 113.5,78.5C 110.833,78.5 108.167,78.5 105.5,78.5C 106.209,77.596 107.209,77.2627 108.5,77.5C 107.833,74.8333 107.167,72.1667 106.5,69.5 Z"/></g>
<g><path style="opacity:1" fill="#492f21" d="M 17.5,74.5 C 19.1172,75.038 20.7839,75.3713 22.5,75.5C 21.7659,76.7079 21.4326,78.0413 21.5,79.5C 23.1992,79.3398 24.8659,79.5065 26.5,80C 25.001,80.8382 24.6676,81.6715 25.5,82.5C 25.4241,84.3035 25.7575,86.3035 26.5,88.5C 25.609,87.8902 24.609,87.5569 23.5,87.5C 22.8333,87.1667 22.1667,86.8333 21.5,86.5C 20.8333,86.5 20.5,86.1667 20.5,85.5C 20.3404,83.847 19.6737,82.5137 18.5,81.5C 18.0074,79.1944 17.6741,76.861 17.5,74.5 Z"/></g>
<g><path style="opacity:1" fill="#4d2f22" d="M 34.5,80.5 C 37.9932,80.9455 39.3266,82.6122 38.5,85.5C 40.1887,86.3037 41.8554,87.3037 43.5,88.5C 44.6527,89.6868 44.6527,90.6868 43.5,91.5C 41.7038,90.2342 41.3705,90.5675 42.5,92.5C 41.675,93.3857 40.675,93.719 39.5,93.5C 38.2921,92.7659 36.9587,92.4326 35.5,92.5C 35.7616,89.0791 34.4283,88.0791 31.5,89.5C 30.0172,87.0542 28.8505,87.3876 28,90.5C 27.7216,89.5842 27.2216,88.9175 26.5,88.5C 25.7575,86.3035 25.4241,84.3035 25.5,82.5C 26.4822,81.8592 27.4822,81.1925 28.5,80.5C 30.1563,82.0224 31.323,81.689 32,79.5C 32.6708,80.2524 33.5041,80.5858 34.5,80.5 Z"/></g>
<g><path style="opacity:1" fill="#957d60" d="M 73.5,82.5 C 74.5832,82.4606 75.5832,82.1272 76.5,81.5C 78.4759,84.7419 81.4759,85.0752 85.5,82.5C 86.4168,83.1272 87.4168,83.4606 88.5,83.5C 85.4862,84.1785 82.8196,85.6785 80.5,88C 74.183,88.9376 68.183,88.1043 62.5,85.5C 59.997,84.6295 57.3303,83.9628 54.5,83.5C 53.596,82.791 53.2627,81.791 53.5,80.5C 55.677,80.4139 57.677,79.7472 59.5,78.5C 61.8309,80.3995 64.4976,81.5662 67.5,82C 67.1667,82.3333 66.8333,82.6667 66.5,83C 69.0385,83.7958 71.3718,83.6291 73.5,82.5 Z"/></g>
<g><path style="opacity:1" fill="#56442f" d="M 97.5,75.5 C 99.0618,75.7329 100.395,76.3995 101.5,77.5C 102.167,77.8333 102.833,78.1667 103.5,78.5C 104.028,79.7206 104.695,80.8873 105.5,82C 103.992,87.8929 102.325,93.7262 100.5,99.5C 100.167,99.5 99.8333,99.5 99.5,99.5C 101.468,92.663 100.135,86.663 95.5,81.5C 95.8333,80.8333 96.1667,80.1667 96.5,79.5C 97.2341,78.2921 97.5674,76.9587 97.5,75.5 Z"/></g>
<g><path style="opacity:1" fill="#896e50" d="M 89.5,75.5 C 90.8333,76.1667 92.1667,76.8333 93.5,77.5C 93.5,78.5 93.5,79.5 93.5,80.5C 91.0107,80.2407 89.344,81.2407 88.5,83.5C 87.4168,83.4606 86.4168,83.1272 85.5,82.5C 81.4759,85.0752 78.4759,84.7419 76.5,81.5C 75.5832,82.1272 74.5832,82.4606 73.5,82.5C 72.8843,81.2022 72.8843,80.2022 73.5,79.5C 74.4959,79.4142 75.3292,79.7476 76,80.5C 80.4549,79.4561 84.9549,78.4561 89.5,77.5C 82.9586,76.2045 82.9586,75.5378 89.5,75.5 Z"/></g>
<g><path style="opacity:0.608" fill="#a26754" d="M 126.5,76.5 C 126.833,76.5 127.167,76.5 127.5,76.5C 127.938,76.4346 128.272,76.6012 128.5,77C 127.475,79.0715 126.642,81.2381 126,83.5C 125.623,84.9423 124.79,85.9423 123.5,86.5C 122.957,86.44 122.624,86.1067 122.5,85.5C 123.469,82.2314 124.802,79.2314 126.5,76.5 Z"/></g>
<g><path style="opacity:1" fill="#4c3025" d="M 47.5,78.5 C 51.1499,77.5062 51.1499,78.3395 47.5,81C 48.2797,82.073 48.113,83.2396 47,84.5C 46.6924,83.6919 46.1924,83.0253 45.5,82.5C 43.5017,84.3337 41.1684,85.3337 38.5,85.5C 39.3266,82.6122 37.9932,80.9455 34.5,80.5C 33.657,78.8267 32.3237,77.66 30.5,77C 31,76.5 31.5,76 32,75.5C 35.2019,76.4503 38.3685,78.1169 41.5,80.5C 42.1667,80.3333 42.8333,80.1667 43.5,80C 42.376,79.7508 41.376,79.2508 40.5,78.5C 40.8333,78.1667 41.1667,77.8333 41.5,77.5C 43.4086,78.3482 45.4086,78.6816 47.5,78.5 Z"/></g>
<g><path style="opacity:1" fill="#694532" d="M 120.5,74.5 C 121.644,70.6478 121.644,66.6478 120.5,62.5C 121.077,61.2267 121.743,61.2267 122.5,62.5C 123.677,64.8631 124.343,67.3631 124.5,70C 123.568,74.4257 122.568,78.9257 121.5,83.5C 120.176,84.6869 119.176,84.3535 118.5,82.5C 119.785,79.9795 120.452,77.3128 120.5,74.5 Z"/></g>
<g><path style="opacity:0.995" fill="#785440" d="M 116.5,54.5 C 118.861,57.483 121.861,59.8163 125.5,61.5C 126.445,66.4053 126.779,71.4053 126.5,76.5C 124.802,79.2314 123.469,82.2314 122.5,85.5C 122.624,86.1067 122.957,86.44 123.5,86.5C 122.015,89.5693 120.015,92.236 117.5,94.5C 116.167,95.1667 115.167,96.1667 114.5,97.5C 112.804,99.129 111.804,98.7957 111.5,96.5C 112.399,93.605 113.733,90.9384 115.5,88.5C 116.792,83.6184 118.459,78.9517 120.5,74.5C 120.452,77.3128 119.785,79.9795 118.5,82.5C 119.176,84.3535 120.176,84.6869 121.5,83.5C 122.568,78.9257 123.568,74.4257 124.5,70C 124.343,67.3631 123.677,64.8631 122.5,62.5C 121.743,61.2267 121.077,61.2267 120.5,62.5C 119.833,61.8333 119.167,61.1667 118.5,60.5C 118.296,58.3146 117.63,56.3146 116.5,54.5 Z"/></g>
<g><path style="opacity:0.882" fill="#caae78" d="M 18.5,81.5 C 19.6737,82.5137 20.3404,83.847 20.5,85.5C 19.8333,85.5 19.1667,85.5 18.5,85.5C 18.5,85.1667 18.5,84.8333 18.5,84.5C 18.5,84.1667 18.5,83.8333 18.5,83.5C 18.5,82.8333 18.5,82.1667 18.5,81.5 Z"/></g>
<g><path style="opacity:1" fill="#1a120d" d="M 94.5,82.5 C 95.4682,84.6074 95.8016,86.9407 95.5,89.5C 94.8501,89.8039 94.1835,90.1373 93.5,90.5C 91.1148,89.3385 88.7814,88.3385 86.5,87.5C 89.1305,85.8474 91.7972,84.1807 94.5,82.5 Z"/></g>
<g><path style="opacity:1" fill="#d1aa48" d="M 18.5,85.5 C 19.1667,85.5 19.8333,85.5 20.5,85.5C 20.5,86.1667 20.8333,86.5 21.5,86.5C 20.9608,90.8075 20.2941,94.8075 19.5,98.5C 19.5896,101.695 20.923,104.028 23.5,105.5C 25.6537,111.992 29.987,115.992 36.5,117.5C 36.5,118.5 36.5,119.5 36.5,120.5C 35.448,120.649 34.448,120.483 33.5,120C 30.4432,117.277 27.1099,114.944 23.5,113C 24.5171,111.951 24.6838,110.784 24,109.5C 18.6041,104.358 15.2708,98.025 14,90.5C 11.7148,89.1811 9.54817,87.6811 7.5,86C 8.60864,85.3623 9.77531,84.8623 11,84.5C 13.4339,85.3223 15.9339,85.6556 18.5,85.5 Z"/></g>
<g><path style="opacity:1" fill="#4f3427" d="M 52.5,73.5 C 53.4916,73.3284 54.1583,73.6618 54.5,74.5C 53.3656,77.9011 52.0323,81.2344 50.5,84.5C 47.8283,86.3914 46.8283,89.0581 47.5,92.5C 45.901,92.7678 44.5676,92.4345 43.5,91.5C 44.6527,90.6868 44.6527,89.6868 43.5,88.5C 41.8554,87.3037 40.1887,86.3037 38.5,85.5C 41.1684,85.3337 43.5017,84.3337 45.5,82.5C 46.1924,83.0253 46.6924,83.6919 47,84.5C 48.113,83.2396 48.2797,82.073 47.5,81C 51.1499,78.3395 51.1499,77.5062 47.5,78.5C 46.7375,77.7321 45.7375,77.2321 44.5,77C 45.2524,76.3292 45.5858,75.4959 45.5,74.5C 46.1499,74.8039 46.8165,75.1373 47.5,75.5C 48.8415,73.9951 50.5082,73.3285 52.5,73.5 Z"/></g>
<g><path style="opacity:1" fill="#6b5239" d="M 103.5,78.5 C 104.167,78.5 104.833,78.5 105.5,78.5C 107.88,79.4632 108.88,81.2966 108.5,84C 107.972,86.8813 107.306,89.7146 106.5,92.5C 105.237,95.4324 103.237,97.7657 100.5,99.5C 102.325,93.7262 103.992,87.8929 105.5,82C 104.695,80.8873 104.028,79.7206 103.5,78.5 Z"/></g>
<g><path style="opacity:1" fill="#d7b750" d="M 18.5,84.5 C 18.5,84.8333 18.5,85.1667 18.5,85.5C 15.9339,85.6556 13.4339,85.3223 11,84.5C 9.77531,84.8623 8.60864,85.3623 7.5,86C 9.54817,87.6811 11.7148,89.1811 14,90.5C 15.2708,98.025 18.6041,104.358 24,109.5C 24.6838,110.784 24.5171,111.951 23.5,113C 27.1099,114.944 30.4432,117.277 33.5,120C 34.448,120.483 35.448,120.649 36.5,120.5C 37.3351,121.943 38.6684,122.943 40.5,123.5C 40.0431,124.298 39.3764,124.631 38.5,124.5C 36.2143,124.405 34.2143,123.738 32.5,122.5C 30.7857,121.262 28.7857,120.595 26.5,120.5C 24.5977,116.943 21.5977,114.943 17.5,114.5C 18.3984,113.842 19.3984,113.176 20.5,112.5C 19.4783,111.646 18.6449,110.646 18,109.5C 17.586,109.957 17.086,110.291 16.5,110.5C 15.646,109.478 14.646,108.645 13.5,108C 14.5742,107.261 15.2409,106.261 15.5,105C 14.2879,98.1809 10.7879,93.6809 5,91.5C 4.23101,88.9009 4.39768,86.4009 5.5,84C 9.88678,83.2938 14.2201,83.4604 18.5,84.5 Z"/></g>
<g><path style="opacity:1" fill="#563a2b" d="M 50.5,84.5 C 50.5,85.1667 50.5,85.8333 50.5,86.5C 48.6742,88.4551 48.1742,90.7884 49,93.5C 50.3063,96.6207 52.1397,99.2874 54.5,101.5C 52.8561,101.714 51.3561,101.38 50,100.5C 49.3828,101.449 49.5494,102.282 50.5,103C 47.9221,102.536 46.2555,103.869 45.5,107C 47.4379,108.431 48.7712,110.265 49.5,112.5C 45.38,111.274 41.7133,109.274 38.5,106.5C 37.3065,105.728 36.3065,104.728 35.5,103.5C 36.2389,103.631 36.9056,103.464 37.5,103C 36.5,101.333 35.5,99.6667 34.5,98C 35.6226,96.9563 36.9559,96.2896 38.5,96C 39.2524,95.3292 39.5858,94.4959 39.5,93.5C 40.675,93.719 41.675,93.3857 42.5,92.5C 41.3705,90.5675 41.7038,90.2342 43.5,91.5C 44.5676,92.4345 45.901,92.7678 47.5,92.5C 46.8283,89.0581 47.8283,86.3914 50.5,84.5 Z"/></g>
<g><path style="opacity:1" fill="#a08b6f" d="M 93.5,77.5 C 94.2223,78.5511 95.2223,79.2178 96.5,79.5C 96.1667,80.1667 95.8333,80.8333 95.5,81.5C 94.8333,81.5 94.5,81.8333 94.5,82.5C 91.7972,84.1807 89.1305,85.8474 86.5,87.5C 82.0561,89.4436 77.3895,90.4436 72.5,90.5C 71.5,90.5 70.5,90.5 69.5,90.5C 65.5561,88.6563 62.2228,89.323 59.5,92.5C 58.5,92.5 57.5,92.5 56.5,92.5C 56.6495,93.552 56.4828,94.552 56,95.5C 55.768,92.262 54.268,89.762 51.5,88C 55.1325,86.951 58.7992,86.1177 62.5,85.5C 68.183,88.1043 74.183,88.9376 80.5,88C 82.8196,85.6785 85.4862,84.1785 88.5,83.5C 89.344,81.2407 91.0107,80.2407 93.5,80.5C 93.5,79.5 93.5,78.5 93.5,77.5 Z"/></g>
<g><path style="opacity:1" fill="#9d8566" d="M 69.5,90.5 C 69.5774,91.7498 70.244,92.5831 71.5,93C 69.0379,94.8504 69.5379,96.017 73,96.5C 74.4127,98.6524 75.2461,100.986 75.5,103.5C 73.742,101.113 71.4087,99.4461 68.5,98.5C 67.8106,97.2264 66.9772,97.2264 66,98.5C 65.3828,97.5509 65.5494,96.7175 66.5,96C 64.5115,95.0617 62.5115,94.2283 60.5,93.5C 60.5,92.8333 60.1667,92.5 59.5,92.5C 62.2228,89.323 65.5561,88.6563 69.5,90.5 Z"/></g>
<g><path style="opacity:1" fill="#856b4c" d="M 105.5,78.5 C 108.167,78.5 110.833,78.5 113.5,78.5C 112.371,81.5085 111.371,84.5085 110.5,87.5C 109.407,89.3492 108.074,91.0158 106.5,92.5C 107.306,89.7146 107.972,86.8813 108.5,84C 108.88,81.2966 107.88,79.4632 105.5,78.5 Z"/></g>
<g><path style="opacity:1" fill="#341a13" d="M 86.5,87.5 C 88.7814,88.3385 91.1148,89.3385 93.5,90.5C 94.1835,90.1373 94.8501,89.8039 95.5,89.5C 95.5,90.5 95.5,91.5 95.5,92.5C 94.5,92.5 93.5,92.5 92.5,92.5C 87.2892,91.1595 82.6225,92.3262 78.5,96C 79.7736,96.9772 79.7736,97.8106 78.5,98.5C 77.8333,98.1667 77.1667,97.8333 76.5,97.5C 74.9019,95.3021 73.5686,92.9687 72.5,90.5C 77.3895,90.4436 82.0561,89.4436 86.5,87.5 Z"/></g>
<g><path style="opacity:1" fill="#9b8467" d="M 54.5,83.5 C 57.3303,83.9628 59.997,84.6295 62.5,85.5C 58.7992,86.1177 55.1325,86.951 51.5,88C 54.268,89.762 55.768,92.262 56,95.5C 56.4828,94.552 56.6495,93.552 56.5,92.5C 57.5,92.5 58.5,92.5 59.5,92.5C 60.1667,92.5 60.5,92.8333 60.5,93.5C 58.7376,95.7005 56.4042,96.8672 53.5,97C 54.9969,99.207 56.9969,99.8736 59.5,99C 58.8333,98.6667 58.1667,98.3333 57.5,98C 61.8265,96.7789 62.6599,97.9456 60,101.5C 59.2825,100.549 58.4491,100.383 57.5,101C 58.305,102.113 58.9717,103.279 59.5,104.5C 57.5887,103.925 55.922,102.925 54.5,101.5C 52.1397,99.2874 50.3063,96.6207 49,93.5C 48.1742,90.7884 48.6742,88.4551 50.5,86.5C 51.7403,85.3412 53.0736,84.3412 54.5,83.5 Z"/></g>
<g><path style="opacity:1" fill="#493625" d="M 94.5,82.5 C 94.5,81.8333 94.8333,81.5 95.5,81.5C 100.135,86.663 101.468,92.663 99.5,99.5C 96.6565,103.754 92.6565,105.587 87.5,105C 88.7375,104.768 89.7375,104.268 90.5,103.5C 91.8333,102.833 92.8333,101.833 93.5,100.5C 94.404,99.791 94.7373,98.791 94.5,97.5C 94.6347,95.4458 93.968,93.7791 92.5,92.5C 93.5,92.5 94.5,92.5 95.5,92.5C 95.5,91.5 95.5,90.5 95.5,89.5C 95.8016,86.9407 95.4682,84.6074 94.5,82.5 Z"/></g>
<g><path style="opacity:0.999" fill="#dec459" d="M 18.5,83.5 C 18.5,83.8333 18.5,84.1667 18.5,84.5C 14.2201,83.4604 9.88678,83.2938 5.5,84C 4.39768,86.4009 4.23101,88.9009 5,91.5C 10.7879,93.6809 14.2879,98.1809 15.5,105C 15.2409,106.261 14.5742,107.261 13.5,108C 14.646,108.645 15.646,109.478 16.5,110.5C 17.086,110.291 17.586,109.957 18,109.5C 18.6449,110.646 19.4783,111.646 20.5,112.5C 19.3984,113.176 18.3984,113.842 17.5,114.5C 16.8826,114.611 16.3826,114.944 16,115.5C 15.3605,112.888 14.1938,110.554 12.5,108.5C 9.93857,107.868 7.60524,106.868 5.5,105.5C 2.54476,101.961 0.544759,97.9612 -0.5,93.5C -0.5,91.5 -0.5,89.5 -0.5,87.5C 1.52436,81.9835 5.52436,79.8168 11.5,81C 14.0301,81.3793 16.3635,82.2126 18.5,83.5 Z"/></g>
<g><path style="opacity:1" fill="#533220" d="M 23.5,87.5 C 24.609,87.5569 25.609,87.8902 26.5,88.5C 27.2216,88.9175 27.7216,89.5842 28,90.5C 28.8505,87.3876 30.0172,87.0542 31.5,89.5C 34.4283,88.0791 35.7616,89.0791 35.5,92.5C 36.9587,92.4326 38.2921,92.7659 39.5,93.5C 39.5858,94.4959 39.2524,95.3292 38.5,96C 36.9559,96.2896 35.6226,96.9563 34.5,98C 35.5,99.6667 36.5,101.333 37.5,103C 36.9056,103.464 36.2389,103.631 35.5,103.5C 32.5653,98.235 28.8986,93.5683 24.5,89.5C 24.1667,88.8333 23.8333,88.1667 23.5,87.5 Z"/></g>
<g><path style="opacity:1" fill="#a48d70" d="M 60.5,93.5 C 62.5115,94.2283 64.5115,95.0617 66.5,96C 65.5494,96.7175 65.3828,97.5509 66,98.5C 66.9772,97.2264 67.8106,97.2264 68.5,98.5C 67.548,99.452 66.548,100.452 65.5,101.5C 67.1082,102.242 68.7749,102.409 70.5,102C 69.8333,102.667 69.1667,103.333 68.5,104C 71.2992,105.136 73.4659,106.969 75,109.5C 78.3652,110.146 81.5319,111.313 84.5,113C 86.5,113.167 88.5,113.333 90.5,113.5C 92.9522,113.461 94.9522,112.794 96.5,111.5C 96.8333,111.5 97.1667,111.5 97.5,111.5C 98.5,111.5 99.5,111.5 100.5,111.5C 99.147,112.526 98.147,113.859 97.5,115.5C 94.8188,117.762 91.8188,118.096 88.5,116.5C 88.1667,116.5 87.8333,116.5 87.5,116.5C 86.609,115.89 85.609,115.557 84.5,115.5C 82.1098,113.98 79.4432,112.98 76.5,112.5C 75.791,111.596 74.791,111.263 73.5,111.5C 70.1933,109.276 66.5267,107.609 62.5,106.5C 61.5,105.833 60.5,105.167 59.5,104.5C 58.9717,103.279 58.305,102.113 57.5,101C 58.4491,100.383 59.2825,100.549 60,101.5C 62.6599,97.9456 61.8265,96.7789 57.5,98C 58.1667,98.3333 58.8333,98.6667 59.5,99C 56.9969,99.8736 54.9969,99.207 53.5,97C 56.4042,96.8672 58.7376,95.7005 60.5,93.5 Z"/></g>
<g><path style="opacity:1" fill="#512317" d="M 92.5,92.5 C 93.968,93.7791 94.6347,95.4458 94.5,97.5C 89.6799,93.7757 85.3465,94.4424 81.5,99.5C 82.2427,100.182 82.9094,100.849 83.5,101.5C 81.288,102.047 79.6213,101.047 78.5,98.5C 79.7736,97.8106 79.7736,96.9772 78.5,96C 82.6225,92.3262 87.2892,91.1595 92.5,92.5 Z"/></g>
<g><path style="opacity:1" fill="#c59b3f" d="M 21.5,86.5 C 22.1667,86.8333 22.8333,87.1667 23.5,87.5C 23.8333,88.1667 24.1667,88.8333 24.5,89.5C 24.5394,90.5832 24.8728,91.5832 25.5,92.5C 25.1543,93.6956 24.6543,93.6956 24,92.5C 23.3333,93.1667 23.3333,93.8333 24,94.5C 25.3561,95.3802 26.8561,95.7135 28.5,95.5C 28.5674,96.9587 28.2341,98.2921 27.5,99.5C 25.9139,98.5868 24.4139,98.5868 23,99.5C 22.8195,101.488 22.9862,103.488 23.5,105.5C 20.923,104.028 19.5896,101.695 19.5,98.5C 20.2941,94.8075 20.9608,90.8075 21.5,86.5 Z"/></g>
<g><path style="opacity:1" fill="#947d5e" d="M 110.5,87.5 C 110.901,94.9802 107.734,100.314 101,103.5C 100.503,106.146 100.336,108.813 100.5,111.5C 99.5,111.5 98.5,111.5 97.5,111.5C 97.3601,109.876 98.0267,108.71 99.5,108C 98.8617,106.293 98.8617,104.46 99.5,102.5C 100.11,101.609 100.443,100.609 100.5,99.5C 103.237,97.7657 105.237,95.4324 106.5,92.5C 108.074,91.0158 109.407,89.3492 110.5,87.5 Z"/></g>
<g><path style="opacity:1" fill="#6e3321" d="M 94.5,97.5 C 94.7373,98.791 94.404,99.791 93.5,100.5C 92.646,98.0663 91.646,98.233 90.5,101C 88.1902,101.497 85.8568,101.663 83.5,101.5C 82.9094,100.849 82.2427,100.182 81.5,99.5C 85.3465,94.4424 89.6799,93.7757 94.5,97.5 Z"/></g>
<g><path style="opacity:1" fill="#9e8768" d="M 68.5,98.5 C 71.4087,99.4461 73.742,101.113 75.5,103.5C 78.6247,105.456 81.2913,107.956 83.5,111C 87.8245,112.688 92.1578,112.854 96.5,111.5C 94.9522,112.794 92.9522,113.461 90.5,113.5C 88.5,113.333 86.5,113.167 84.5,113C 81.5319,111.313 78.3652,110.146 75,109.5C 73.4659,106.969 71.2992,105.136 68.5,104C 69.1667,103.333 69.8333,102.667 70.5,102C 68.7749,102.409 67.1082,102.242 65.5,101.5C 66.548,100.452 67.548,99.452 68.5,98.5 Z"/></g>
<g><path style="opacity:0.878" fill="#a37c66" d="M 117.5,94.5 C 121.064,96.2822 124.731,98.1156 128.5,100C 129.381,100.708 130.047,101.542 130.5,102.5C 129.532,104.607 129.198,106.941 129.5,109.5C 131.5,109.5 133.5,109.5 135.5,109.5C 135.5,109.833 135.5,110.167 135.5,110.5C 133.409,110.318 131.409,110.652 129.5,111.5C 128.76,108.164 128.094,104.83 127.5,101.5C 125.364,100.207 123.364,100.207 121.5,101.5C 120.391,101.557 119.391,101.89 118.5,102.5C 115.703,102.033 114.369,100.367 114.5,97.5C 115.167,96.1667 116.167,95.1667 117.5,94.5 Z"/></g>
<g><path style="opacity:1" fill="#8d6050" d="M 93.5,100.5 C 92.8333,101.833 91.8333,102.833 90.5,103.5C 88.4727,103.662 86.4727,103.495 84.5,103C 83.944,102.617 83.6107,102.117 83.5,101.5C 85.8568,101.663 88.1902,101.497 90.5,101C 91.646,98.233 92.646,98.0663 93.5,100.5 Z"/></g>
<g><path style="opacity:0.713" fill="#b28b71" d="M 130.5,102.5 C 131.451,103.919 131.784,105.585 131.5,107.5C 133.38,107.229 134.713,107.896 135.5,109.5C 133.5,109.5 131.5,109.5 129.5,109.5C 129.198,106.941 129.532,104.607 130.5,102.5 Z"/></g>
<g><path style="opacity:1" fill="#be963e" d="M 27.5,99.5 C 29.8244,99.6615 31.4911,100.828 32.5,103C 28.749,103.582 27.0824,105.749 27.5,109.5C 28.552,109.351 29.552,109.517 30.5,110C 32.3125,112.86 34.6458,115.027 37.5,116.5C 37.2254,121.22 38.0588,121.554 40,117.5C 42.4697,120.314 42.9697,123.314 41.5,126.5C 40.5084,126.328 39.8417,126.662 39.5,127.5C 38.596,126.791 38.2627,125.791 38.5,124.5C 39.3764,124.631 40.0431,124.298 40.5,123.5C 38.6684,122.943 37.3351,121.943 36.5,120.5C 36.5,119.5 36.5,118.5 36.5,117.5C 29.987,115.992 25.6537,111.992 23.5,105.5C 22.9862,103.488 22.8195,101.488 23,99.5C 24.4139,98.5868 25.9139,98.5868 27.5,99.5 Z"/></g>
<g><path style="opacity:1" fill="#b78e3f" d="M 24.5,89.5 C 28.8986,93.5683 32.5653,98.235 35.5,103.5C 36.3065,104.728 37.3065,105.728 38.5,106.5C 37.9035,107.935 37.9035,109.602 38.5,111.5C 38.2865,113.144 38.6198,114.644 39.5,116C 38.9056,116.464 38.2389,116.631 37.5,116.5C 34.6458,115.027 32.3125,112.86 30.5,110C 29.552,109.517 28.552,109.351 27.5,109.5C 27.0824,105.749 28.749,103.582 32.5,103C 31.4911,100.828 29.8244,99.6615 27.5,99.5C 28.2341,98.2921 28.5674,96.9587 28.5,95.5C 26.8561,95.7135 25.3561,95.3802 24,94.5C 23.3333,93.8333 23.3333,93.1667 24,92.5C 24.6543,93.6956 25.1543,93.6956 25.5,92.5C 24.8728,91.5832 24.5394,90.5832 24.5,89.5 Z"/></g>
<g><path style="opacity:1" fill="#654d39" d="M 76.5,97.5 C 77.1667,97.8333 77.8333,98.1667 78.5,98.5C 79.6213,101.047 81.288,102.047 83.5,101.5C 83.6107,102.117 83.944,102.617 84.5,103C 86.4727,103.495 88.4727,103.662 90.5,103.5C 89.7375,104.268 88.7375,104.768 87.5,105C 92.6565,105.587 96.6565,103.754 99.5,99.5C 99.8333,99.5 100.167,99.5 100.5,99.5C 100.443,100.609 100.11,101.609 99.5,102.5C 97.5483,105.118 95.215,107.452 92.5,109.5C 89.5,108.167 86.5,106.833 83.5,105.5C 80.2235,103.584 77.8902,100.917 76.5,97.5 Z"/></g>
<g><path style="opacity:0.767" fill="#926c5e" d="M 111.5,96.5 C 111.804,98.7957 112.804,99.129 114.5,97.5C 114.369,100.367 115.703,102.033 118.5,102.5C 119.193,106.853 117.526,109.52 113.5,110.5C 110.962,109.957 108.628,108.957 106.5,107.5C 107.603,103.503 109.269,99.8363 111.5,96.5 Z"/></g>
<g><path style="opacity:1" fill="#503427" d="M 62.5,106.5 C 66.5267,107.609 70.1933,109.276 73.5,111.5C 69.8023,111.806 66.3023,111.139 63,109.5C 62.0497,110.022 61.2164,110.689 60.5,111.5C 57.223,110.746 53.8897,110.246 50.5,110C 53.6145,105.683 57.6145,104.516 62.5,106.5 Z"/></g>
<g><path style="opacity:1" fill="#4c3428" d="M 54.5,101.5 C 55.922,102.925 57.5887,103.925 59.5,104.5C 60.5,105.167 61.5,105.833 62.5,106.5C 57.6145,104.516 53.6145,105.683 50.5,110C 53.8897,110.246 57.223,110.746 60.5,111.5C 61.2164,110.689 62.0497,110.022 63,109.5C 66.3023,111.139 69.8023,111.806 73.5,111.5C 74.791,111.263 75.791,111.596 76.5,112.5C 72.7267,112.263 69.0601,112.763 65.5,114C 67.1193,114.236 68.1193,115.069 68.5,116.5C 68.1667,116.5 67.8333,116.5 67.5,116.5C 61.4318,115.948 55.4318,114.614 49.5,112.5C 48.7712,110.265 47.4379,108.431 45.5,107C 46.2555,103.869 47.9221,102.536 50.5,103C 49.5494,102.282 49.3828,101.449 50,100.5C 51.3561,101.38 52.8561,101.714 54.5,101.5 Z"/></g>
<g><path style="opacity:0.996" fill="#dec462" d="M 5.5,105.5 C 7.60524,106.868 9.93857,107.868 12.5,108.5C 14.1938,110.554 15.3605,112.888 16,115.5C 16.3826,114.944 16.8826,114.611 17.5,114.5C 21.5977,114.943 24.5977,116.943 26.5,120.5C 25.5,120.5 24.5,120.5 23.5,120.5C 15.6725,117.671 9.67251,112.671 5.5,105.5 Z"/></g>
<g><path style="opacity:1" fill="#856e52" d="M 69.5,90.5 C 70.5,90.5 71.5,90.5 72.5,90.5C 73.5686,92.9687 74.9019,95.3021 76.5,97.5C 77.8902,100.917 80.2235,103.584 83.5,105.5C 86.5,106.833 89.5,108.167 92.5,109.5C 95.215,107.452 97.5483,105.118 99.5,102.5C 98.8617,104.46 98.8617,106.293 99.5,108C 98.0267,108.71 97.3601,109.876 97.5,111.5C 97.1667,111.5 96.8333,111.5 96.5,111.5C 92.1578,112.854 87.8245,112.688 83.5,111C 81.2913,107.956 78.6247,105.456 75.5,103.5C 75.2461,100.986 74.4127,98.6524 73,96.5C 69.5379,96.017 69.0379,94.8504 71.5,93C 70.244,92.5831 69.5774,91.7498 69.5,90.5 Z"/></g>
<g><path style="opacity:1" fill="#664231" d="M 121.5,101.5 C 123.167,101.5 124.833,101.5 126.5,101.5C 124.297,106.586 123.297,111.92 123.5,117.5C 123.167,117.5 122.833,117.5 122.5,117.5C 121.166,113.002 118.166,110.669 113.5,110.5C 117.526,109.52 119.193,106.853 118.5,102.5C 119.391,101.89 120.391,101.557 121.5,101.5 Z"/></g>
<g><path style="opacity:1" fill="#7e5741" d="M 121.5,101.5 C 123.364,100.207 125.364,100.207 127.5,101.5C 128.094,104.83 128.76,108.164 129.5,111.5C 131.409,110.652 133.409,110.318 135.5,110.5C 135.833,110.5 136.167,110.5 136.5,110.5C 139.305,117.533 136.971,120.033 129.5,118C 124.272,111.739 123.272,112.572 126.5,120.5C 129.223,123.877 132.556,124.877 136.5,123.5C 137.881,124.881 139.215,126.215 140.5,127.5C 140.5,128.5 140.5,129.5 140.5,130.5C 139.5,131.167 138.5,131.833 137.5,132.5C 137.5,130.5 137.5,128.5 137.5,126.5C 129.937,128.05 125.27,125.05 123.5,117.5C 123.297,111.92 124.297,106.586 126.5,101.5C 124.833,101.5 123.167,101.5 121.5,101.5 Z"/></g>
<g><path style="opacity:1" fill="#ae8e4c" d="M 38.5,111.5 C 39.7255,112.937 40.7255,114.604 41.5,116.5C 42.325,117.386 43.325,117.719 44.5,117.5C 44.5,117.833 44.5,118.167 44.5,118.5C 43.1667,119.167 43.1667,119.833 44.5,120.5C 44.5,122.833 44.5,125.167 44.5,127.5C 43.209,127.737 42.209,127.404 41.5,126.5C 42.9697,123.314 42.4697,120.314 40,117.5C 38.0588,121.554 37.2254,121.22 37.5,116.5C 38.2389,116.631 38.9056,116.464 39.5,116C 38.6198,114.644 38.2865,113.144 38.5,111.5 Z"/></g>
<g><path style="opacity:1" fill="#623e2e" d="M 113.5,110.5 C 118.166,110.669 121.166,113.002 122.5,117.5C 119.859,119.453 116.859,120.953 113.5,122C 112.748,122.671 112.414,123.504 112.5,124.5C 110.833,124.5 109.167,124.5 107.5,124.5C 108.122,121.224 110.122,119.891 113.5,120.5C 113.714,118.856 113.38,117.356 112.5,116C 103.412,113.209 103.746,111.376 113.5,110.5 Z"/></g>
<g><path style="opacity:1" fill="#311e18" d="M 76.5,112.5 C 79.4432,112.98 82.1098,113.98 84.5,115.5C 84.5858,116.496 84.2524,117.329 83.5,118C 77.7451,120.222 72.0784,122.389 66.5,124.5C 66.1667,124.5 65.8333,124.5 65.5,124.5C 65.5569,123.391 65.8902,122.391 66.5,121.5C 70.2059,121.501 72.5392,119.835 73.5,116.5C 79.9878,115.966 79.9878,114.966 73.5,113.5C 71.0321,113.323 69.3654,114.323 68.5,116.5C 68.1193,115.069 67.1193,114.236 65.5,114C 69.0601,112.763 72.7267,112.263 76.5,112.5 Z"/></g>
<g><path style="opacity:1" fill="#634231" d="M 122.5,117.5 C 122.833,117.5 123.167,117.5 123.5,117.5C 125.27,125.05 129.937,128.05 137.5,126.5C 137.5,128.5 137.5,130.5 137.5,132.5C 129.794,133.811 123.461,131.477 118.5,125.5C 116.955,124.548 115.288,124.215 113.5,124.5C 113.167,124.5 112.833,124.5 112.5,124.5C 112.414,123.504 112.748,122.671 113.5,122C 116.859,120.953 119.859,119.453 122.5,117.5 Z"/></g>
<g><path style="opacity:1" fill="#8f674d" d="M 136.5,110.5 C 138.641,111.755 139.307,113.422 138.5,115.5C 138.994,117.026 139.661,118.359 140.5,119.5C 140.5,122.167 140.5,124.833 140.5,127.5C 139.215,126.215 137.881,124.881 136.5,123.5C 132.556,124.877 129.223,123.877 126.5,120.5C 123.272,112.572 124.272,111.739 129.5,118C 136.971,120.033 139.305,117.533 136.5,110.5 Z"/></g>
<g><path style="opacity:0.996" fill="#cfbc72" d="M 23.5,120.5 C 24.5,120.5 25.5,120.5 26.5,120.5C 28.7857,120.595 30.7857,121.262 32.5,122.5C 29.2186,122.58 26.2186,121.913 23.5,120.5 Z"/></g>
<g><path style="opacity:1" fill="#45382b" d="M 59.5,120.5 C 59.5,121.167 59.5,121.833 59.5,122.5C 56.4552,122.492 53.4552,122.159 50.5,121.5C 50.5,120.5 50.5,119.5 50.5,118.5C 48.5,118.5 46.5,118.5 44.5,118.5C 44.5,118.167 44.5,117.833 44.5,117.5C 45.5832,117.461 46.5832,117.127 47.5,116.5C 50.7137,117.553 53.547,119.219 56,121.5C 57.1385,121.011 58.3052,120.678 59.5,120.5 Z"/></g>
<g><path style="opacity:1" fill="#271713" d="M 44.5,118.5 C 46.5,118.5 48.5,118.5 50.5,118.5C 50.5,119.5 50.5,120.5 50.5,121.5C 53.4552,122.159 56.4552,122.492 59.5,122.5C 60.172,123.267 61.0053,123.934 62,124.5C 62.9184,122.624 64.4184,121.624 66.5,121.5C 65.8902,122.391 65.5569,123.391 65.5,124.5C 63.9028,125.09 62.5695,126.09 61.5,127.5C 57.2038,125.042 52.5371,124.042 47.5,124.5C 47.5,123.833 47.1667,123.5 46.5,123.5C 46.573,121.973 45.9063,120.973 44.5,120.5C 43.1667,119.833 43.1667,119.167 44.5,118.5 Z"/></g>
<g><path style="opacity:1" fill="#1f1513" d="M 66.5,121.5 C 64.4184,121.624 62.9184,122.624 62,124.5C 61.0053,123.934 60.172,123.267 59.5,122.5C 59.5,121.833 59.5,121.167 59.5,120.5C 62.0739,118.976 64.7406,117.642 67.5,116.5C 67.8333,116.5 68.1667,116.5 68.5,116.5C 69.3654,114.323 71.0321,113.323 73.5,113.5C 79.9878,114.966 79.9878,115.966 73.5,116.5C 72.5392,119.835 70.2059,121.501 66.5,121.5 Z"/></g>
<g><path style="opacity:1" fill="#6e4b38" d="M 106.5,107.5 C 108.628,108.957 110.962,109.957 113.5,110.5C 103.746,111.376 103.412,113.209 112.5,116C 113.38,117.356 113.714,118.856 113.5,120.5C 110.122,119.891 108.122,121.224 107.5,124.5C 105.897,124.688 104.563,124.188 103.5,123C 103.028,119.981 103.028,116.481 103.5,112.5C 103.75,110.326 104.75,108.659 106.5,107.5 Z"/></g>
<g><path style="opacity:1" fill="#7a5a43" d="M 103.5,112.5 C 103.028,116.481 103.028,119.981 103.5,123C 104.563,124.188 105.897,124.688 107.5,124.5C 109.167,124.5 110.833,124.5 112.5,124.5C 112.833,124.5 113.167,124.5 113.5,124.5C 110.997,125.371 108.33,126.037 105.5,126.5C 103.803,128.305 102.97,130.639 103,133.5C 102.722,132.584 102.222,131.918 101.5,131.5C 100.833,131.5 100.5,131.167 100.5,130.5C 100.065,127.843 99.0652,125.509 97.5,123.5C 97.2714,117.714 95.6048,117.214 92.5,122C 91.8729,124.135 91.3729,126.302 91,128.5C 90.3333,129.833 89.6667,129.833 89,128.5C 88.7679,129.737 88.2679,130.737 87.5,131.5C 88.1637,126.527 88.4971,121.527 88.5,116.5C 91.8188,118.096 94.8188,117.762 97.5,115.5C 99.7837,115.025 101.784,114.025 103.5,112.5 Z"/></g>
<g><path style="opacity:1" fill="#37221b" d="M 47.5,124.5 C 52.5371,124.042 57.2038,125.042 61.5,127.5C 62.5695,126.09 63.9028,125.09 65.5,124.5C 65.8333,124.5 66.1667,124.5 66.5,124.5C 65.8763,126.754 64.543,128.421 62.5,129.5C 61.5041,129.586 60.6708,129.252 60,128.5C 56.6726,130.286 53.3392,131.953 50,133.5C 48.788,132.224 47.9547,130.724 47.5,129C 48.2029,127.307 48.2029,125.807 47.5,124.5 Z"/></g>
<g><path style="opacity:1" fill="#3f261e" d="M 84.5,115.5 C 85.609,115.557 86.609,115.89 87.5,116.5C 87.5,118.5 87.5,120.5 87.5,122.5C 86.5,122.5 85.5,122.5 84.5,122.5C 82.7376,122.643 81.0709,122.309 79.5,121.5C 75.8213,123.04 72.1546,124.707 68.5,126.5C 67.7025,126.957 67.3691,127.624 67.5,128.5C 66.3778,129.947 64.8778,130.947 63,131.5C 62.5357,130.906 62.369,130.239 62.5,129.5C 64.543,128.421 65.8763,126.754 66.5,124.5C 72.0784,122.389 77.7451,120.222 83.5,118C 84.2524,117.329 84.5858,116.496 84.5,115.5 Z"/></g>
<g><path style="opacity:1" fill="#442a21" d="M 84.5,122.5 C 85.0476,123.688 85.3809,124.855 85.5,126C 84.8333,126.333 84.1667,126.667 83.5,127C 84.5536,128.388 84.7203,129.888 84,131.5C 82.5307,134.86 80.6974,138.027 78.5,141C 76.0794,142.048 73.7461,142.214 71.5,141.5C 70.8902,140.609 70.5569,139.609 70.5,138.5C 73.7351,140.853 76.5685,140.186 79,136.5C 80.6398,134.421 81.8064,132.088 82.5,129.5C 81.675,128.614 80.675,128.281 79.5,128.5C 80.8502,127.35 80.6836,126.683 79,126.5C 75.419,129.185 71.5857,129.852 67.5,128.5C 67.3691,127.624 67.7025,126.957 68.5,126.5C 72.1546,124.707 75.8213,123.04 79.5,121.5C 81.0709,122.309 82.7376,122.643 84.5,122.5 Z"/></g>
<g><path style="opacity:1" fill="#6f5543" d="M 39.5,128.5 C 40.4822,129.141 41.4822,129.807 42.5,130.5C 43.4119,134.133 44.0785,137.8 44.5,141.5C 41.8801,137.657 40.2135,133.324 39.5,128.5 Z"/></g>
<g><path style="opacity:1" fill="#4a3126" d="M 46.5,123.5 C 47.1667,123.5 47.5,123.833 47.5,124.5C 48.2029,125.807 48.2029,127.307 47.5,129C 47.9547,130.724 48.788,132.224 50,133.5C 53.3392,131.953 56.6726,130.286 60,128.5C 60.6708,129.252 61.5041,129.586 62.5,129.5C 62.369,130.239 62.5357,130.906 63,131.5C 64.8778,130.947 66.3778,129.947 67.5,128.5C 71.5857,129.852 75.419,129.185 79,126.5C 80.6836,126.683 80.8502,127.35 79.5,128.5C 76.1932,130.153 72.8599,131.82 69.5,133.5C 68.5713,134.689 68.238,136.022 68.5,137.5C 67.207,136.158 66.3736,134.491 66,132.5C 65.5065,134.134 65.3398,135.801 65.5,137.5C 64.5,137.5 63.5,137.5 62.5,137.5C 61.7611,137.631 61.0944,137.464 60.5,137C 61.7691,134.861 61.7691,132.695 60.5,130.5C 59.5791,132.756 57.9124,133.756 55.5,133.5C 55.5,134.5 55.5,135.5 55.5,136.5C 53.2341,136.859 51.4007,136.192 50,134.5C 49.6924,135.308 49.1924,135.975 48.5,136.5C 47.6461,135.052 46.6461,133.719 45.5,132.5C 45.5109,129.667 45.8442,126.667 46.5,123.5 Z"/></g>
<g><path style="opacity:1" fill="#493121" d="M 87.5,116.5 C 87.8333,116.5 88.1667,116.5 88.5,116.5C 88.4971,121.527 88.1637,126.527 87.5,131.5C 83.7964,138.252 80.4631,145.252 77.5,152.5C 77.1667,152.5 76.8333,152.5 76.5,152.5C 74.863,150.525 73.1964,148.525 71.5,146.5C 71.5,145.833 71.5,145.167 71.5,144.5C 71.5,143.5 71.5,142.5 71.5,141.5C 73.7461,142.214 76.0794,142.048 78.5,141C 80.6974,138.027 82.5307,134.86 84,131.5C 84.7203,129.888 84.5536,128.388 83.5,127C 84.1667,126.667 84.8333,126.333 85.5,126C 85.3809,124.855 85.0476,123.688 84.5,122.5C 85.5,122.5 86.5,122.5 87.5,122.5C 87.5,120.5 87.5,118.5 87.5,116.5 Z"/></g>
<g><path style="opacity:1" fill="#2a1a15" d="M 79.5,128.5 C 80.675,128.281 81.675,128.614 82.5,129.5C 81.8064,132.088 80.6398,134.421 79,136.5C 76.5685,140.186 73.7351,140.853 70.5,138.5C 69.8333,138.167 69.1667,137.833 68.5,137.5C 68.238,136.022 68.5713,134.689 69.5,133.5C 72.8599,131.82 76.1932,130.153 79.5,128.5 Z"/></g>
<g><path style="opacity:1" fill="#b69f7e" d="M 97.5,123.5 C 99.0652,125.509 100.065,127.843 100.5,130.5C 98.555,129.101 97.555,129.101 97.5,130.5C 96.2225,131.749 95.2225,133.249 94.5,135C 95.0966,136.628 94.7633,138.295 93.5,140C 94.7111,141.113 94.7111,142.28 93.5,143.5C 94.09,144.799 95.09,145.632 96.5,146C 94.1088,146.691 94.1088,147.691 96.5,149C 95.5842,149.278 94.9175,149.778 94.5,150.5C 90.9869,145.814 90.6536,140.814 93.5,135.5C 90.9244,134.117 91.2577,133.283 94.5,133C 93.5842,132.722 92.9175,132.222 92.5,131.5C 93.7344,128.591 95.4011,125.925 97.5,123.5 Z"/></g>
<g><path style="opacity:1" fill="#9b8466" d="M 97.5,123.5 C 95.4011,125.925 93.7344,128.591 92.5,131.5C 90.7845,132.574 89.7845,134.241 89.5,136.5C 88.675,137.386 87.675,137.719 86.5,137.5C 84.7407,139.633 84.074,141.966 84.5,144.5C 85.0253,145.192 85.6919,145.692 86.5,146C 86.1667,146.333 85.8333,146.667 85.5,147C 86.0848,148.302 86.7515,149.469 87.5,150.5C 88.8565,152.499 88.1899,153.665 85.5,154C 85.7284,154.399 86.0618,154.565 86.5,154.5C 86.4142,155.496 86.7476,156.329 87.5,157C 83.5348,158.417 81.2015,157.084 80.5,153C 79.552,152.517 78.552,152.351 77.5,152.5C 80.4631,145.252 83.7964,138.252 87.5,131.5C 88.2679,130.737 88.7679,129.737 89,128.5C 89.6667,129.833 90.3333,129.833 91,128.5C 91.3729,126.302 91.8729,124.135 92.5,122C 95.6048,117.214 97.2714,117.714 97.5,123.5 Z"/></g>
<g><path style="opacity:1" fill="#9d7b5d" d="M 105.5,126.5 C 105.5,128.5 105.5,130.5 105.5,132.5C 106.498,136.328 106.498,139.994 105.5,143.5C 103.708,139.809 102.375,135.809 101.5,131.5C 102.222,131.918 102.722,132.584 103,133.5C 102.97,130.639 103.803,128.305 105.5,126.5 Z"/></g>
<g><path style="opacity:1" fill="#bea886" d="M 97.5,130.5 C 99.7737,132.145 99.7737,133.645 97.5,135C 98.7477,138.118 98.4144,141.118 96.5,144C 99.0544,146.269 99.0544,148.602 96.5,151C 97.5786,151.956 98.7453,152.789 100,153.5C 98.967,156.769 100.134,159.103 103.5,160.5C 104.086,160.291 104.586,159.957 105,159.5C 105.498,156.183 105.665,152.85 105.5,149.5C 106.143,151.076 107.143,152.41 108.5,153.5C 107.939,154.908 107.605,156.408 107.5,158C 109.052,162.709 110.052,167.542 110.5,172.5C 109.167,169.5 107.833,166.5 106.5,163.5C 106.631,162.624 106.298,161.957 105.5,161.5C 103.812,162.521 102.479,163.855 101.5,165.5C 100.833,165.833 100.167,166.167 99.5,166.5C 99.4431,165.391 99.1098,164.391 98.5,163.5C 99.4734,163.013 100.473,162.513 101.5,162C 99.6841,160.685 98.0175,159.185 96.5,157.5C 99.0756,156.117 98.7423,155.283 95.5,155C 96.5,154.667 97.5,154.333 98.5,154C 96.6498,153.31 95.3164,152.144 94.5,150.5C 94.9175,149.778 95.5842,149.278 96.5,149C 94.1088,147.691 94.1088,146.691 96.5,146C 95.09,145.632 94.09,144.799 93.5,143.5C 94.7111,142.28 94.7111,141.113 93.5,140C 94.7633,138.295 95.0966,136.628 94.5,135C 95.2225,133.249 96.2225,131.749 97.5,130.5 Z"/></g>
<g><path style="opacity:1" fill="#5a3c2f" d="M 44.5,120.5 C 45.9063,120.973 46.573,121.973 46.5,123.5C 45.8442,126.667 45.5109,129.667 45.5,132.5C 46.6461,133.719 47.6461,135.052 48.5,136.5C 49.1924,135.975 49.6924,135.308 50,134.5C 51.4007,136.192 53.2341,136.859 55.5,136.5C 55.5,135.5 55.5,134.5 55.5,133.5C 57.9124,133.756 59.5791,132.756 60.5,130.5C 61.7691,132.695 61.7691,134.861 60.5,137C 61.0944,137.464 61.7611,137.631 62.5,137.5C 62.7852,139.288 62.4519,140.955 61.5,142.5C 59.5679,143.145 58.4012,144.479 58,146.5C 57.6667,146.167 57.3333,145.833 57,145.5C 56.5172,146.448 56.3505,147.448 56.5,148.5C 55.1266,148.657 53.7932,148.49 52.5,148C 50.2327,145.563 47.5661,143.729 44.5,142.5C 44.5,142.167 44.5,141.833 44.5,141.5C 44.0785,137.8 43.4119,134.133 42.5,130.5C 41.4822,129.807 40.4822,129.141 39.5,128.5C 39.5,128.167 39.5,127.833 39.5,127.5C 39.8417,126.662 40.5084,126.328 41.5,126.5C 42.209,127.404 43.209,127.737 44.5,127.5C 44.5,125.167 44.5,122.833 44.5,120.5 Z"/></g>
<g><path style="opacity:1" fill="#ae9876" d="M 92.5,131.5 C 92.9175,132.222 93.5842,132.722 94.5,133C 91.2577,133.283 90.9244,134.117 93.5,135.5C 90.6536,140.814 90.9869,145.814 94.5,150.5C 95.3164,152.144 96.6498,153.31 98.5,154C 97.5,154.333 96.5,154.667 95.5,155C 98.7423,155.283 99.0756,156.117 96.5,157.5C 98.0175,159.185 99.6841,160.685 101.5,162C 100.473,162.513 99.4734,163.013 98.5,163.5C 96.822,162.253 95.4887,160.586 94.5,158.5C 93.5713,157.311 93.238,155.978 93.5,154.5C 92.1266,154.657 90.7932,154.49 89.5,154C 90.3366,152.989 90.67,151.822 90.5,150.5C 89.5,150.5 88.5,150.5 87.5,150.5C 86.7515,149.469 86.0848,148.302 85.5,147C 85.8333,146.667 86.1667,146.333 86.5,146C 85.6919,145.692 85.0253,145.192 84.5,144.5C 84.074,141.966 84.7407,139.633 86.5,137.5C 87.675,137.719 88.675,137.386 89.5,136.5C 89.7845,134.241 90.7845,132.574 92.5,131.5 Z"/></g>
<g><path style="opacity:1" fill="#cab492" d="M 100.5,130.5 C 100.5,131.167 100.833,131.5 101.5,131.5C 102.375,135.809 103.708,139.809 105.5,143.5C 105.5,145.5 105.5,147.5 105.5,149.5C 105.665,152.85 105.498,156.183 105,159.5C 104.586,159.957 104.086,160.291 103.5,160.5C 100.134,159.103 98.967,156.769 100,153.5C 98.7453,152.789 97.5786,151.956 96.5,151C 99.0544,148.602 99.0544,146.269 96.5,144C 98.4144,141.118 98.7477,138.118 97.5,135C 99.7737,133.645 99.7737,132.145 97.5,130.5C 97.555,129.101 98.555,129.101 100.5,130.5 Z"/></g>
<g><path style="opacity:1" fill="#6e503e" d="M 68.5,137.5 C 69.1667,137.833 69.8333,138.167 70.5,138.5C 70.5569,139.609 70.8902,140.609 71.5,141.5C 71.5,142.5 71.5,143.5 71.5,144.5C 68.6915,144.693 66.0248,145.36 63.5,146.5C 63.6287,148.216 63.962,149.883 64.5,151.5C 59.994,151.852 55.6607,151.185 51.5,149.5C 50.5344,151.396 50.2011,153.396 50.5,155.5C 50.1667,155.5 49.8333,155.5 49.5,155.5C 49.8076,153.076 49.4742,150.743 48.5,148.5C 46.6736,146.853 45.3403,144.853 44.5,142.5C 47.5661,143.729 50.2327,145.563 52.5,148C 53.7932,148.49 55.1266,148.657 56.5,148.5C 56.3505,147.448 56.5172,146.448 57,145.5C 57.3333,145.833 57.6667,146.167 58,146.5C 58.4012,144.479 59.5679,143.145 61.5,142.5C 62.4519,140.955 62.7852,139.288 62.5,137.5C 63.5,137.5 64.5,137.5 65.5,137.5C 65.3398,135.801 65.5065,134.134 66,132.5C 66.3736,134.491 67.207,136.158 68.5,137.5 Z"/></g>
<g><path style="opacity:1" fill="#ab8f6d" d="M 105.5,132.5 C 106.776,134.562 107.61,136.896 108,139.5C 108.499,144.155 108.666,148.821 108.5,153.5C 107.143,152.41 106.143,151.076 105.5,149.5C 105.5,147.5 105.5,145.5 105.5,143.5C 106.498,139.994 106.498,136.328 105.5,132.5 Z"/></g>
<g><path style="opacity:1" fill="#7b5a37" d="M 71.5,144.5 C 71.5,145.167 71.5,145.833 71.5,146.5C 68.3791,147.288 66.7124,149.288 66.5,152.5C 65.8333,152.167 65.1667,151.833 64.5,151.5C 63.962,149.883 63.6287,148.216 63.5,146.5C 66.0248,145.36 68.6915,144.693 71.5,144.5 Z"/></g>
<g><path style="opacity:0.999" fill="#cfb254" d="M 71.5,146.5 C 73.1964,148.525 74.863,150.525 76.5,152.5C 77.8333,154.167 79.1667,155.833 80.5,157.5C 78.5,157.5 76.5,157.5 74.5,157.5C 72.8654,156.273 73.1988,157.94 75.5,162.5C 74.1667,161.5 72.8333,160.5 71.5,159.5C 70.2141,156.883 68.5475,154.55 66.5,152.5C 66.7124,149.288 68.3791,147.288 71.5,146.5 Z"/></g>
<g><path style="opacity:1" fill="#402920" d="M 64.5,151.5 C 64.4772,153.6 65.1439,155.433 66.5,157C 64.9554,158.641 65.2887,159.807 67.5,160.5C 68.451,159.674 69.451,159.508 70.5,160C 69.1955,160.804 68.5288,161.971 68.5,163.5C 69.2861,165.571 70.6194,167.238 72.5,168.5C 72.1445,169.522 71.4778,170.189 70.5,170.5C 68.8762,170.64 67.7096,169.973 67,168.5C 65.1921,170.558 63.0254,170.892 60.5,169.5C 57.8749,168.559 57.8749,167.393 60.5,166C 57.8782,164.525 55.2116,163.359 52.5,162.5C 51.8826,162.389 51.3826,162.056 51,161.5C 51.0773,162.738 50.9106,163.738 50.5,164.5C 50.1667,163.667 49.8333,162.833 49.5,162C 50.0767,159.863 50.41,157.696 50.5,155.5C 50.2011,153.396 50.5344,151.396 51.5,149.5C 55.6607,151.185 59.994,151.852 64.5,151.5 Z"/></g>
<g><path style="opacity:1" fill="#2e1c18" d="M 52.5,162.5 C 51.5651,159.887 51.3985,157.221 52,154.5C 52.7247,153.941 53.5581,153.608 54.5,153.5C 59.77,156.782 64.1033,160.948 67.5,166C 64.788,168.007 63.288,167.174 63,163.5C 61.9148,162.707 60.7481,162.04 59.5,161.5C 57.109,161.999 54.7756,162.332 52.5,162.5 Z"/></g>
<g><path style="opacity:1" fill="#9f845b" d="M 76.5,152.5 C 76.8333,152.5 77.1667,152.5 77.5,152.5C 78.552,152.351 79.552,152.517 80.5,153C 81.2015,157.084 83.5348,158.417 87.5,157C 86.7476,156.329 86.4142,155.496 86.5,154.5C 87.766,155.09 89.0993,155.59 90.5,156C 89.6919,156.308 89.0253,156.808 88.5,157.5C 90.5,160.833 92.5,164.167 94.5,167.5C 94.3764,168.107 94.0431,168.44 93.5,168.5C 92.8333,167.167 91.8333,166.167 90.5,165.5C 88.7721,163.774 86.7721,162.441 84.5,161.5C 83.5,159.833 82.1667,158.5 80.5,157.5C 79.1667,155.833 77.8333,154.167 76.5,152.5 Z"/></g>
<g><path style="opacity:1" fill="#d0b354" d="M 80.5,157.5 C 82.1667,158.5 83.5,159.833 84.5,161.5C 83.5041,161.586 82.6708,161.252 82,160.5C 80.9242,162.067 80.0909,163.734 79.5,165.5C 80.0985,168.377 81.4319,170.71 83.5,172.5C 82.1667,171.833 80.8333,171.167 79.5,170.5C 78.5711,167.588 77.2378,164.921 75.5,162.5C 73.1988,157.94 72.8654,156.273 74.5,157.5C 76.5,157.5 78.5,157.5 80.5,157.5 Z"/></g>
<g><path style="opacity:1" fill="#ad9474" d="M 87.5,150.5 C 88.5,150.5 89.5,150.5 90.5,150.5C 90.67,151.822 90.3366,152.989 89.5,154C 90.7932,154.49 92.1266,154.657 93.5,154.5C 93.238,155.978 93.5713,157.311 94.5,158.5C 95.4887,160.586 96.822,162.253 98.5,163.5C 99.1098,164.391 99.4431,165.391 99.5,166.5C 99.5,166.833 99.5,167.167 99.5,167.5C 97.7028,168.73 95.7028,169.396 93.5,169.5C 93.5,169.167 93.5,168.833 93.5,168.5C 94.0431,168.44 94.3764,168.107 94.5,167.5C 92.5,164.167 90.5,160.833 88.5,157.5C 89.0253,156.808 89.6919,156.308 90.5,156C 89.0993,155.59 87.766,155.09 86.5,154.5C 86.0618,154.565 85.7284,154.399 85.5,154C 88.1899,153.665 88.8565,152.499 87.5,150.5 Z"/></g>
<g><path style="opacity:1" fill="#5f3f20" d="M 71.5,159.5 C 72.8333,160.5 74.1667,161.5 75.5,162.5C 77.2378,164.921 78.5711,167.588 79.5,170.5C 78.8333,170.5 78.1667,170.5 77.5,170.5C 76.5705,168.564 75.2372,166.897 73.5,165.5C 72.5233,163.589 71.8567,161.589 71.5,159.5 Z"/></g>
<g><path style="opacity:1" fill="#452f24" d="M 49.5,155.5 C 49.8333,155.5 50.1667,155.5 50.5,155.5C 50.41,157.696 50.0767,159.863 49.5,162C 49.8333,162.833 50.1667,163.667 50.5,164.5C 50.9106,163.738 51.0773,162.738 51,161.5C 51.3826,162.056 51.8826,162.389 52.5,162.5C 55.2116,163.359 57.8782,164.525 60.5,166C 57.8749,167.393 57.8749,168.559 60.5,169.5C 60.5858,170.496 60.2524,171.329 59.5,172C 61.8973,173.71 61.8973,175.544 59.5,177.5C 58.5041,177.586 57.6708,177.252 57,176.5C 55.7353,173.539 54.5686,170.539 53.5,167.5C 52.3112,166.571 50.9778,166.238 49.5,166.5C 49.5,167.5 49.5,168.5 49.5,169.5C 48.6618,169.842 48.3284,170.508 48.5,171.5C 47.337,166.231 47.6704,160.898 49.5,155.5 Z"/></g>
<g><path style="opacity:1" fill="#d4ba56" d="M 84.5,161.5 C 86.7721,162.441 88.7721,163.774 90.5,165.5C 91.1465,167.156 91.8131,168.823 92.5,170.5C 91.4529,172.056 90.7863,173.723 90.5,175.5C 89.1667,175.5 87.8333,175.5 86.5,175.5C 85.1667,174.833 84.1667,173.833 83.5,172.5C 81.4319,170.71 80.0985,168.377 79.5,165.5C 80.0909,163.734 80.9242,162.067 82,160.5C 82.6708,161.252 83.5041,161.586 84.5,161.5 Z"/></g>
<g><path style="opacity:1" fill="#815d43" d="M 106.5,163.5 C 107.376,167.462 108.042,171.462 108.5,175.5C 105.255,172.665 102.922,169.332 101.5,165.5C 102.479,163.855 103.812,162.521 105.5,161.5C 106.298,161.957 106.631,162.624 106.5,163.5 Z"/></g>
<g><path style="opacity:1" fill="#4a2f25" d="M 70.5,170.5 C 70.6495,171.552 70.4828,172.552 70,173.5C 69.2825,172.549 68.4491,172.383 67.5,173C 64.7305,176.825 63.0638,180.991 62.5,185.5C 61.2086,184.527 61.2086,183.527 62.5,182.5C 61.2371,180.971 60.2371,179.305 59.5,177.5C 61.8973,175.544 61.8973,173.71 59.5,172C 60.2524,171.329 60.5858,170.496 60.5,169.5C 63.0254,170.892 65.1921,170.558 67,168.5C 67.7096,169.973 68.8762,170.64 70.5,170.5 Z"/></g>
<g><path style="opacity:1" fill="#513425" d="M 64.5,151.5 C 65.1667,151.833 65.8333,152.167 66.5,152.5C 68.5475,154.55 70.2141,156.883 71.5,159.5C 71.8567,161.589 72.5233,163.589 73.5,165.5C 75.2372,166.897 76.5705,168.564 77.5,170.5C 74.0869,171.059 71.2535,172.726 69,175.5C 68.3102,178.196 66.8102,180.363 64.5,182C 65.3366,183.011 65.67,184.178 65.5,185.5C 65.5,187.167 65.5,188.833 65.5,190.5C 62.8333,190.5 60.1667,190.5 57.5,190.5C 59.2646,189.539 61.2646,189.205 63.5,189.5C 63.5674,188.041 63.2341,186.708 62.5,185.5C 63.0638,180.991 64.7305,176.825 67.5,173C 68.4491,172.383 69.2825,172.549 70,173.5C 70.4828,172.552 70.6495,171.552 70.5,170.5C 71.4778,170.189 72.1445,169.522 72.5,168.5C 70.6194,167.238 69.2861,165.571 68.5,163.5C 68.5288,161.971 69.1955,160.804 70.5,160C 69.451,159.508 68.451,159.674 67.5,160.5C 65.2887,159.807 64.9554,158.641 66.5,157C 65.1439,155.433 64.4772,153.6 64.5,151.5 Z"/></g>
<g><path style="opacity:0.561" fill="#c8b170" d="M 90.5,165.5 C 91.8333,166.167 92.8333,167.167 93.5,168.5C 93.5,168.833 93.5,169.167 93.5,169.5C 93.5,170.833 93.5,172.167 93.5,173.5C 92.0937,173.973 91.427,174.973 91.5,176.5C 89.5853,176.784 87.9187,176.451 86.5,175.5C 87.8333,175.5 89.1667,175.5 90.5,175.5C 90.7863,173.723 91.4529,172.056 92.5,170.5C 91.8131,168.823 91.1465,167.156 90.5,165.5 Z"/></g>
<g><path style="opacity:1" fill="#36231c" d="M 49.5,169.5 C 50.5,169.5 51.5,169.5 52.5,169.5C 52.8583,174.744 55.025,179.077 59,182.5C 59.4828,183.448 59.6495,184.448 59.5,185.5C 58.5,185.5 57.5,185.5 56.5,185.5C 56.8039,184.85 57.1373,184.183 57.5,183.5C 56.1667,182.167 54.8333,180.833 53.5,179.5C 51.5405,178.481 49.5405,178.481 47.5,179.5C 48.0916,176.873 48.4249,174.206 48.5,171.5C 48.3284,170.508 48.6618,169.842 49.5,169.5 Z"/></g>
<g><path style="opacity:1" fill="#291a16" d="M 56.5,185.5 C 52.6737,185.61 48.8404,186.61 45,188.5C 43.7308,187.095 43.2308,185.429 43.5,183.5C 45.1392,182.527 46.4726,181.194 47.5,179.5C 49.5405,178.481 51.5405,178.481 53.5,179.5C 54.8333,180.833 56.1667,182.167 57.5,183.5C 57.1373,184.183 56.8039,184.85 56.5,185.5 Z"/></g>
<g><path style="opacity:1" fill="#604630" d="M 77.5,170.5 C 73.4697,175.524 69.4697,180.524 65.5,185.5C 65.67,184.178 65.3366,183.011 64.5,182C 66.8102,180.363 68.3102,178.196 69,175.5C 71.2535,172.726 74.0869,171.059 77.5,170.5 Z"/></g>
<g><path style="opacity:1" fill="#4a2d20" d="M 99.5,167.5 C 100.239,167.369 100.906,167.536 101.5,168C 101.101,170.602 101.101,173.102 101.5,175.5C 103.219,177.544 104.886,179.544 106.5,181.5C 106.567,184.766 104.901,186.266 101.5,186C 99.2433,189.157 97.0766,188.99 95,185.5C 94.4987,181.49 93.9987,177.49 93.5,173.5C 93.5,172.167 93.5,170.833 93.5,169.5C 95.7028,169.396 97.7028,168.73 99.5,167.5 Z"/></g>
<g><path style="opacity:1" fill="#a38063" d="M 106.5,163.5 C 107.833,166.5 109.167,169.5 110.5,172.5C 110.539,173.583 110.873,174.583 111.5,175.5C 114.184,176.842 116.851,178.176 119.5,179.5C 119.833,180.833 120.167,182.167 120.5,183.5C 120.167,183.5 119.833,183.5 119.5,183.5C 116.872,181.519 113.872,180.019 110.5,179C 109.915,177.698 109.249,176.531 108.5,175.5C 108.042,171.462 107.376,167.462 106.5,163.5 Z"/></g>
<g><path style="opacity:1" fill="#422e23" d="M 47.5,179.5 C 46.4726,181.194 45.1392,182.527 43.5,183.5C 42.5028,183.47 41.8361,183.97 41.5,185C 42.2335,186.766 42.5668,188.599 42.5,190.5C 39.5,190.5 36.5,190.5 33.5,190.5C 33.8308,188.678 34.4975,187.011 35.5,185.5C 38.9024,182.465 42.9024,180.465 47.5,179.5 Z"/></g>
<g><path style="opacity:1" fill="#664230" d="M 101.5,165.5 C 102.922,169.332 105.255,172.665 108.5,175.5C 109.249,176.531 109.915,177.698 110.5,179C 113.872,180.019 116.872,181.519 119.5,183.5C 120.055,185.729 121.389,187.395 123.5,188.5C 121.009,189.541 121.009,190.374 123.5,191C 123,191.5 122.5,192 122,192.5C 116.614,189.722 115.448,191.055 118.5,196.5C 116.571,196.769 114.905,196.269 113.5,195C 113.957,194.586 114.291,194.086 114.5,193.5C 113.509,192.335 112.509,191.168 111.5,190C 112.923,189.955 113.923,188.789 114.5,186.5C 112.9,183.939 110.733,181.939 108,180.5C 107.235,180.57 106.735,180.903 106.5,181.5C 104.886,179.544 103.219,177.544 101.5,175.5C 101.101,173.102 101.101,170.602 101.5,168C 100.906,167.536 100.239,167.369 99.5,167.5C 99.5,167.167 99.5,166.833 99.5,166.5C 100.167,166.167 100.833,165.833 101.5,165.5 Z"/></g>
<g><path style="opacity:1" fill="#bb9f7f" d="M 119.5,179.5 C 124.23,182.4 127.23,186.567 128.5,192C 128.101,193.728 127.434,195.228 126.5,196.5C 126.909,190.988 124.909,186.655 120.5,183.5C 120.167,182.167 119.833,180.833 119.5,179.5 Z"/></g>
<g><path style="opacity:1" fill="#3e2820" d="M 59.5,177.5 C 60.2371,179.305 61.2371,180.971 62.5,182.5C 61.2086,183.527 61.2086,184.527 62.5,185.5C 63.2341,186.708 63.5674,188.041 63.5,189.5C 61.2646,189.205 59.2646,189.539 57.5,190.5C 52.5,190.5 47.5,190.5 42.5,190.5C 42.5668,188.599 42.2335,186.766 41.5,185C 41.8361,183.97 42.5028,183.47 43.5,183.5C 43.2308,185.429 43.7308,187.095 45,188.5C 48.8404,186.61 52.6737,185.61 56.5,185.5C 57.5,185.5 58.5,185.5 59.5,185.5C 59.6495,184.448 59.4828,183.448 59,182.5C 55.025,179.077 52.8583,174.744 52.5,169.5C 51.5,169.5 50.5,169.5 49.5,169.5C 49.5,168.5 49.5,167.5 49.5,166.5C 50.9778,166.238 52.3112,166.571 53.5,167.5C 54.5686,170.539 55.7353,173.539 57,176.5C 57.6708,177.252 58.5041,177.586 59.5,177.5 Z"/></g>
<g><path style="opacity:1" fill="#573a2a" d="M 93.5,173.5 C 93.9987,177.49 94.4987,181.49 95,185.5C 97.0766,188.99 99.2433,189.157 101.5,186C 104.901,186.266 106.567,184.766 106.5,181.5C 106.735,180.903 107.235,180.57 108,180.5C 110.733,181.939 112.9,183.939 114.5,186.5C 113.923,188.789 112.923,189.955 111.5,190C 112.509,191.168 113.509,192.335 114.5,193.5C 114.291,194.086 113.957,194.586 113.5,195C 114.905,196.269 116.571,196.769 118.5,196.5C 118.5,196.833 118.5,197.167 118.5,197.5C 115.833,197.5 113.167,197.5 110.5,197.5C 98.9504,195.281 92.6171,188.281 91.5,176.5C 91.427,174.973 92.0937,173.973 93.5,173.5 Z"/></g>
<g><path style="opacity:0.725" fill="#615750" d="M 35.5,185.5 C 34.4975,187.011 33.8308,188.678 33.5,190.5C 36.5,190.5 39.5,190.5 42.5,190.5C 47.5,190.5 52.5,190.5 57.5,190.5C 60.1667,190.5 62.8333,190.5 65.5,190.5C 53.9933,191.824 42.3266,191.824 30.5,190.5C 31.5244,188.054 33.1911,186.388 35.5,185.5 Z"/></g>
<g><path style="opacity:1" fill="#7a5640" d="M 119.5,183.5 C 119.833,183.5 120.167,183.5 120.5,183.5C 124.909,186.655 126.909,190.988 126.5,196.5C 126.5,196.833 126.5,197.167 126.5,197.5C 123.833,197.5 121.167,197.5 118.5,197.5C 118.5,197.167 118.5,196.833 118.5,196.5C 115.448,191.055 116.614,189.722 122,192.5C 122.5,192 123,191.5 123.5,191C 121.009,190.374 121.009,189.541 123.5,188.5C 121.389,187.395 120.055,185.729 119.5,183.5 Z"/></g>
</svg>
